<svg width="27" height="31" viewBox="0 0 27 31" fill="none" xmlns="http://www.w3.org/2000/svg">
<g clip-path="url(#clip0_43_494)">
<path d="M26.9677 15.0565C26.9677 14.7286 26.831 14.4618 26.6211 14.2418L14.3602 1.02756C14.108 0.769273 13.8212 0.612743 13.492 0.612743C13.1516 0.612743 12.8324 0.774361 12.6136 1.03265L0.336502 14.247C0.126674 14.4783 0 14.7286 0 15.0565C0 15.7072 0.49165 16.2105 1.12227 16.2105C1.41525 16.2105 1.71325 16.0797 1.92308 15.8763L14.1889 2.66326H12.7688L25.0608 15.8763C25.2605 16.0797 25.5524 16.2105 25.8516 16.2105C26.4873 16.2105 26.9677 15.7072 26.9677 15.0565Z" fill="#7E30E1"/>
<path d="M26.9677 29.8625C26.9677 29.5346 26.831 29.2627 26.6211 29.0313L14.3602 15.817C14.108 15.5588 13.8212 15.4137 13.492 15.4137C13.1516 15.4137 12.8324 15.5691 12.6136 15.8273L0.336502 29.0479C0.126674 29.273 0 29.5346 0 29.8625C0 30.5081 0.49165 31 1.12227 31C1.41525 31 1.71325 30.8857 1.92308 30.6823L14.1889 17.4579H12.7688L25.0608 30.6823C25.2605 30.8857 25.5524 31 25.8516 31C26.4873 31 26.9677 30.5081 26.9677 29.8625Z" fill="#7E30E1"/>
</g>
<defs>
<clipPath id="clip0_43_494">
<rect width="31" height="27" fill="white" transform="matrix(0 -1 1 0 0 31)"/>
</clipPath>
</defs>
</svg>
