<svg width="27" height="31" viewBox="0 0 27 31" fill="none" xmlns="http://www.w3.org/2000/svg">
<g clip-path="url(#clip0_43_494)">
<path d="M0.0323048 15.9435C0.0323048 16.2714 0.168976 16.5382 0.37887 16.7582L12.6398 29.9724C12.892 30.2307 13.1788 30.3873 13.508 30.3873C13.8484 30.3873 14.1676 30.2256 14.3864 29.9674L26.6635 16.753C26.8733 16.5217 27 16.2714 27 15.9435C27 15.2928 26.5084 14.7895 25.8777 14.7895C25.5847 14.7895 25.2868 14.9203 25.0769 15.1237L12.8111 28.3367H14.2312L1.93925 15.1237C1.73946 14.9203 1.44756 14.7895 1.14837 14.7895C0.512726 14.7895 0.0323048 15.2928 0.0323048 15.9435Z" fill="#7E30E1"/>
<path d="M0.0323048 1.13745C0.0323048 1.46537 0.168976 1.73732 0.37887 1.96868L12.6398 15.183C12.892 15.4412 13.1788 15.5863 13.508 15.5863C13.8484 15.5863 14.1676 15.4309 14.3864 15.1727L26.6635 1.95212C26.8733 1.72704 27 1.46537 27 1.13745C27 0.491881 26.5084 0 25.8777 0C25.5847 0 25.2868 0.114275 25.0769 0.317652L12.8111 13.5421H14.2312L1.93925 0.317652C1.73946 0.114275 1.44756 0 1.14837 0C0.512726 0 0.0323048 0.491881 0.0323048 1.13745Z" fill="#7E30E1"/>
</g>
<defs>
<clipPath id="clip0_43_494">
<rect width="31" height="27" fill="white" transform="matrix(0 1 -1 0 27 0)"/>
</clipPath>
</defs>
</svg>
