<svg width="158" height="158" viewBox="0 0 158 158" fill="none" xmlns="http://www.w3.org/2000/svg">
<circle cx="79.0001" cy="79" r="65" fill="#E26EE5"/>
<circle cx="79" cy="79" r="59.65" transform="rotate(-22.7123 79 79)" stroke="#F3F8FF" stroke-width="0.7" stroke-dasharray="67 67"/>
<circle cx="79.0724" cy="79.0723" r="54.8276" transform="rotate(-50.7785 79.0724 79.0723)" stroke="#F3F8FF" stroke-width="0.5" stroke-dasharray="67 67"/>
<path d="M52.3107 114.699L51.7809 113.598C51.1516 112.291 51.3805 110.733 52.3591 109.662L70.613 89.6868C71.42 88.8038 72.5167 88.2393 73.7043 88.0958L97.5648 85.2131C98.142 85.1434 98.6671 85.5535 98.7392 86.1305L100.044 94.4783L100.696 100.087L101.087 104L101.122 105.775L101.348 110.261C101.348 110.952 101.236 111.639 101.018 112.294L100.957 112.478L100.842 112.793C100.572 113.535 100.188 114.23 99.7033 114.854C99.5836 115.007 99.4331 115.135 99.2615 115.227L87.7945 121.402C87.6998 121.453 87.6014 121.496 87.5 121.533L87.3002 121.604C86.3248 121.952 85.2967 122.13 84.2609 122.13C83.0585 122.13 81.8711 121.864 80.7841 121.35L79.199 120.6L73.61 117.957L72.7827 117.565L63.0001 117.696L59.5223 117.783C58.3672 117.811 57.213 117.695 56.087 117.435L55.9527 117.403C54.6083 117.087 53.4209 116.301 52.6041 115.187C52.4915 115.034 52.3933 114.87 52.3107 114.699Z" fill="#49108B" stroke="#F3F8FF"/>
<path d="M90.7827 111.044L89.2175 86.9131L95.087 86.3913L96.6522 108.565L90.7827 111.044Z" fill="#F3F8FF"/>
<path d="M79.4348 116L63.7827 109.87L65.7392 105.565L72.2609 108.826L85.4348 113.522L79.4348 116Z" fill="#F3F8FF"/>
<path d="M90.7827 111.044L89.2175 86.9131L95.087 86.3913L96.6522 108.565L90.7827 111.044Z" stroke="#F3F8FF"/>
<path d="M79.4348 116L63.7827 109.87L65.7392 105.565L72.2609 108.826L85.4348 113.522L79.4348 116Z" stroke="#F3F8FF"/>
<path d="M35.2609 85.8417L33.6523 76.1173C33.2234 73.5243 33.4067 70.867 34.1874 68.3574C35.8056 63.1561 38.6819 58.4342 42.5613 54.6102L43.5904 53.5958C45.0482 52.1588 46.6474 50.8727 48.3637 49.7572L53.6088 46.3478L59.8696 43.2174L64.8261 41.2609L71.4783 39.4348L78.2609 38.3913L82.1072 38.1889C84.4963 38.0632 86.8914 38.1139 89.273 38.3407L89.7396 38.3852C92.5148 38.6495 95.2561 39.1942 97.9215 40.011L98.2567 40.1137C100.744 40.8761 103.138 41.9172 105.391 43.2174C108.691 45.3011 111.821 47.6412 114.753 50.2158L121.044 55.7392L122.841 56.9375C122.931 56.9976 122.961 57.1164 122.909 57.2118C122.375 58.2036 121.536 58.9974 120.516 59.4758L108.52 65.1025C107.742 65.4672 107.019 65.9375 106.37 66.5001C105.72 67.0627 105.15 67.7101 104.673 68.4249L104.386 68.8562C103.667 69.9351 103.053 71.0809 102.555 72.2778L102 73.6087L99.8692 80.7473C99.5536 81.8044 99.0371 82.7907 98.3479 83.6522L98.5638 84.4617C98.7332 85.0971 98.3594 85.7504 97.7258 85.9264C96.925 86.1489 96.1047 86.2945 95.2762 86.3612L78.4819 87.7138C77.5536 87.7885 76.6329 87.9396 75.7294 88.1655C75.2522 88.2848 74.8163 88.5316 74.4685 88.8794L74.2293 89.1186C73.9623 89.3856 73.74 89.694 73.5712 90.0317L64.2894 108.595C63.6988 109.776 62.8414 110.804 61.7849 111.596C61.1354 112.083 60.3418 112.34 59.5301 112.325L57.8283 112.293C55.1114 112.243 52.4095 111.877 49.777 111.204L48.6945 110.927C48.3314 110.834 48.0155 110.61 47.8076 110.298L47.663 110.081C47.6273 110.028 47.5797 109.983 47.5239 109.952C46.9868 109.645 46.5656 109.169 46.3256 108.599L45.7482 107.228C45.6852 107.078 45.5866 106.946 45.4609 106.843C44.6353 106.168 43.8992 105.39 43.2704 104.528L37.4171 96.5072C37.2754 96.313 37.2891 96.046 37.4499 95.8673C37.9946 95.2621 38.1258 94.3904 37.7835 93.6517L37.438 92.9061C36.3972 90.6602 35.6649 88.2838 35.2609 85.8417Z" fill="#F3F8FF" stroke="#F3F8FF"/>
<path d="M78.2609 116.522L73.7243 117.948C73.7055 117.953 73.6884 117.964 73.6745 117.978C73.5566 118.096 73.5889 118.294 73.738 118.369L77.8542 120.427C78.2045 120.602 78.5987 120.67 78.9873 120.621C79.2853 120.584 79.5803 120.526 79.87 120.447L80.8696 120.174L86.4783 117.826L93.7827 114.696L99.4956 111.898C99.9448 111.678 100.354 111.385 100.708 111.031L100.752 110.987C101.06 110.679 101.317 110.323 101.512 109.933C101.575 109.806 101.604 109.665 101.596 109.523L101.348 105.304C101.355 105.43 101.305 105.553 101.212 105.638L100.563 106.225C99.6139 107.084 98.5349 107.787 97.3659 108.308L88.3044 112.348L78.2609 116.522Z" fill="#F3F8FF"/>
<path d="M87.5732 121.083L87.6171 121.302C87.6398 121.416 87.7013 121.518 87.791 121.592L89.087 122.652L90.6104 123.668C90.8984 123.86 91.2055 124.021 91.5269 124.15L93.0001 124.739L93.9293 125.204C94.515 125.497 95.1722 125.616 95.8234 125.547L96.6187 125.464C97.0745 125.416 97.5237 125.318 97.9585 125.173C98.043 125.145 98.1198 125.098 98.1828 125.035L99.0194 124.198C99.431 123.786 99.7037 123.257 99.7994 122.682L99.9131 122L100.174 120.565L100.304 118.478L100.211 116.889C100.187 116.474 100.078 116.07 99.8928 115.699L99.8787 115.67C99.647 115.207 99.2714 114.831 98.8081 114.6C98.4227 114.407 97.9895 114.331 97.5616 114.382L96.8409 114.466C96.2818 114.532 95.7309 114.655 95.1968 114.833L94.0369 115.22C93.2607 115.478 92.5129 115.815 91.8048 116.225L91.3348 116.497C90.7069 116.861 90.1099 117.275 89.5499 117.736L88.6678 118.463C88.3408 118.732 88.0595 119.053 87.8349 119.412C87.6303 119.739 87.5218 120.118 87.5218 120.504V120.564C87.5218 120.738 87.539 120.912 87.5732 121.083Z" fill="#F3F8FF"/>
<path d="M78.2609 116.522L73.7243 117.948C73.7055 117.953 73.6884 117.964 73.6745 117.978C73.5566 118.096 73.5889 118.294 73.738 118.369L77.8542 120.427C78.2045 120.602 78.5987 120.67 78.9873 120.621C79.2853 120.584 79.5803 120.526 79.87 120.447L80.8696 120.174L86.4783 117.826L93.7827 114.696L99.4956 111.898C99.9448 111.678 100.354 111.385 100.708 111.031L100.752 110.987C101.06 110.679 101.317 110.323 101.512 109.933C101.575 109.806 101.604 109.665 101.596 109.523L101.348 105.304C101.355 105.43 101.305 105.553 101.212 105.638L100.563 106.225C99.6139 107.084 98.5349 107.787 97.3659 108.308L88.3044 112.348L78.2609 116.522Z" stroke="#F3F8FF"/>
<path d="M87.5732 121.083L87.6171 121.302C87.6398 121.416 87.7013 121.518 87.791 121.592L89.087 122.652L90.6104 123.668C90.8984 123.86 91.2055 124.021 91.5269 124.15L93.0001 124.739L93.9293 125.204C94.515 125.497 95.1722 125.616 95.8234 125.547L96.6187 125.464C97.0745 125.416 97.5237 125.318 97.9585 125.173C98.043 125.145 98.1198 125.098 98.1828 125.035L99.0194 124.198C99.431 123.786 99.7037 123.257 99.7994 122.682L99.9131 122L100.174 120.565L100.304 118.478L100.211 116.889C100.187 116.474 100.078 116.07 99.8928 115.699L99.8787 115.67C99.647 115.207 99.2714 114.831 98.8081 114.6C98.4227 114.407 97.9895 114.331 97.5616 114.382L96.8409 114.466C96.2818 114.532 95.7309 114.655 95.1968 114.833L94.0369 115.22C93.2607 115.478 92.5129 115.815 91.8048 116.225L91.3348 116.497C90.7069 116.861 90.1099 117.275 89.5499 117.736L88.6678 118.463C88.3408 118.732 88.0595 119.053 87.8349 119.412C87.6303 119.739 87.5218 120.118 87.5218 120.504V120.564C87.5218 120.738 87.539 120.912 87.5732 121.083Z" stroke="#F3F8FF"/>
<path d="M67.3044 59.7826L64.6957 57.9565L76.9566 57.4348L76.174 59.2609L67.3044 59.7826Z" fill="#0C0C0C" stroke="#0C0C0C"/>
<path d="M38.2174 68.7826L33.3914 71L33.2609 72.8261L35.4783 86.6522L36.1305 89.7826L37.9566 94.087V95L60.2609 95.5218L76.174 59.5218L67.0435 60.1739L64.4348 58.4783L48.2609 60.1739L38.2174 68.7826Z" fill="#49108B" stroke="#F3F8FF"/>
</svg>
