<svg width="290" height="288" viewBox="0 0 290 288" fill="none" xmlns="http://www.w3.org/2000/svg">
<path d="M70.3922 156.784L103.131 146.367C107.003 145.135 111.086 144.703 115.13 145.096L135.772 147.103C141.822 147.691 147.618 149.828 152.602 153.307C164.708 161.759 179.662 165.089 194.211 162.575L196.924 162.106C206.896 160.382 216.486 156.912 225.253 151.854L229.875 149.188C235.261 146.08 241.083 143.797 247.146 142.414C259.19 139.667 271.801 143.301 280.537 152.037L283.5 155L284 120.5L259.761 112.596C246.279 108.2 231.478 111.27 220.857 120.665L217.95 123.237C214.036 126.699 209.377 129.212 204.334 130.582L184.771 135.895C176.171 138.231 167.037 137.628 158.818 134.182L150.439 130.668C143.859 127.909 136.865 126.269 129.744 125.817L122.926 125.384C113.951 124.814 105.075 127.533 97.9582 133.032L69.4775 155.04C68.5926 155.724 69.3265 157.123 70.3922 156.784Z" stroke="#F3F8FF"/>
<path d="M172.5 201.73L163.256 202.317C156.136 202.769 149.141 204.409 142.561 207.168L134.182 210.682C125.963 214.128 116.829 214.731 108.229 212.395L87.8514 206.861C83.3326 205.634 79.1159 203.486 75.4658 200.553L69.8172 196.014C59.3205 187.579 45.2841 184.992 32.4698 189.13L5.00003 198V231L11.5919 225.941C21.035 218.694 33.2164 216.032 44.8219 218.679V218.679C51.5693 220.218 58.048 222.758 64.0425 226.217L66.6204 227.704C76.1191 233.184 86.5783 236.797 97.4343 238.348L109 240M204 216.455L223.523 231.54C224.407 232.224 223.674 233.623 222.608 233.284L189.869 222.867C185.997 221.635 181.914 221.203 177.87 221.596L152.281 224.084C149.476 224.356 146.793 225.362 144.5 227V227" stroke="#F3F8FF"/>
<path d="M108.592 196.143L134.381 192.113C138.396 191.485 142.496 191.68 146.433 192.685L161.869 196.626C166.706 197.86 171.142 200.32 174.752 203.768C183.52 212.143 195.24 216.718 207.363 216.498L208.861 216.471C217.675 216.312 226.392 214.597 234.61 211.407L236.904 210.517C242.381 208.391 248.146 207.097 254.007 206.679C263.62 205.994 273.071 209.427 280.003 216.122L283.5 219.5L284 192.5L268.962 185.04C257.23 179.22 243.304 179.991 232.287 187.072C228.195 189.701 223.552 191.352 218.719 191.897L205.484 193.388C196.628 194.385 187.693 192.397 180.095 187.738L177.473 186.13C171.391 182.4 164.728 179.713 157.759 178.181L156.598 177.926C147.814 175.994 138.628 177.328 130.756 181.678L107.954 194.279C106.975 194.82 107.487 196.315 108.592 196.143Z" stroke="#F3F8FF"/>
<path d="M184.671 246.143L158.882 242.113C154.868 241.485 150.767 241.68 146.83 242.685L131.394 246.626C126.557 247.86 122.121 250.32 118.511 253.768C109.743 262.143 98.0234 266.718 85.9002 266.498L84.4017 266.471C75.5878 266.312 66.8713 264.597 58.6533 261.407L56.4511 260.553C50.9129 258.403 45.084 257.095 39.1582 256.672C29.5933 255.99 20.1791 259.341 13.1961 265.913L6.1969 272.5L6.1969 247.33C6.19691 245.439 7.26344 243.71 8.95311 242.861L24.3191 235.145C36.0309 229.264 49.9775 230.003 61.0024 237.088C65.0769 239.707 69.7001 241.351 74.5131 241.893L87.7788 243.388C96.6349 244.385 105.57 242.397 113.168 237.738L115.79 236.13C121.872 232.4 128.535 229.713 135.504 228.181L136.665 227.926C145.449 225.994 154.635 227.328 162.507 231.678L185.309 244.279C186.288 244.82 185.776 246.315 184.671 246.143Z" stroke="#F3F8FF"/>
<path d="M124.154 171.46L110.282 169.292C106.267 168.665 102.166 168.86 98.2289 169.865L89.6009 172.067C86.3028 172.909 83.2772 174.587 80.8158 176.938C74.8367 182.649 66.8447 185.769 58.5776 185.619L57.5557 185.601C51.5453 185.492 45.6013 184.323 39.9972 182.148L38.4955 181.565C34.7188 180.099 30.7439 179.207 26.703 178.919C20.1804 178.453 13.7607 180.738 8.99873 185.22L4.22581 189.712L4.22581 173.529C4.22582 171.638 5.29235 169.909 6.98203 169.06L16.5838 164.239C24.5704 160.228 34.0809 160.732 41.5991 165.564C44.3776 167.35 47.5303 168.471 50.8124 168.841L58.69 169.728C65.4865 170.494 72.3441 168.968 78.1745 165.392L78.6591 165.095C83.0061 162.429 87.7683 160.509 92.7487 159.414C99.0265 158.033 105.592 158.987 111.218 162.096L124.792 169.597C125.771 170.138 125.259 171.633 124.154 171.46Z" stroke="#F3F8FF"/>
<path d="M284.5 54L272.532 45.8757C263.629 39.8317 252.25 38.7712 242.383 43.0658V43.0658C238.625 44.7019 234.539 45.4495 230.445 45.2507L221.024 44.7933C212.76 44.3921 204.867 41.2426 198.597 35.8444L193.878 31.782C191.982 30.1497 189.826 28.8459 187.5 27.9245V27.9245M153.403 27.7973L140.999 32.2433C139.946 32.6206 140.213 34.1783 141.331 34.1846L160.794 34.2949C164.857 34.3179 168.874 35.1663 172.599 36.7884L183.66 41.6041C187.435 43.2479 190.724 45.8365 193.208 49.1204V49.1204C199.242 57.0976 208.182 62.37 218.083 63.7912L219.306 63.9669C226.505 65.0001 233.829 64.7547 240.942 63.242L242.867 62.8324C247.648 61.8157 252.554 61.5208 257.422 61.9576L257.986 62.0082C265.515 62.6837 272.414 66.4906 277 72.5V72.5" stroke="#F3F8FF"/>
<path d="M149.268 80.6252L130.891 73.7427C127.086 72.3175 123.031 71.6802 118.971 71.8695L106.828 72.436C102.694 72.6288 98.6787 73.8835 95.1702 76.079C86.6478 81.4121 76.3645 83.1651 66.5564 80.9569L65.3441 80.6839C58.2134 79.0785 51.422 76.227 45.2825 72.2607L43.1357 70.8738C39.3308 68.4156 35.1791 66.5413 30.8188 65.3132L29.5521 64.9565C22.4283 62.9501 14.7756 64.4116 8.8926 68.902C7.12294 70.2528 4.58244 68.9154 4.69439 66.6919L5.37487 53.1759C5.48396 51.0092 6.97788 49.1601 9.07329 48.598L21.798 45.1851C32.2935 42.3702 43.4954 45.3052 51.262 52.9052C54.1323 55.7139 57.6114 57.8233 61.4291 59.0694L70.5922 62.0604C78.4978 64.6409 87.0387 64.5074 94.8598 61.681L95.5098 61.4461C101.341 59.3388 107.483 58.2215 113.683 58.1403C121.498 58.0378 129.083 60.7854 135.019 65.8691L150.269 78.9292C151.118 79.6567 150.315 81.0175 149.268 80.6252Z" stroke="#F3F8FF"/>
<path d="M138 245V245C141.762 244.775 145.529 245.319 149.073 246.6L161.6 251.126C169.981 254.155 179.135 254.298 187.607 251.533L205.89 245.565C210.857 243.944 215.384 241.199 219.119 237.544L221.804 234.917C231.655 225.277 245.774 221.388 259.171 224.624L283.5 230.5L283.5 264.256C283.5 264.778 282.822 264.983 282.532 264.549V264.549C282.511 264.516 282.486 264.486 282.458 264.46L281.132 263.193C272.368 254.819 259.832 251.697 248.164 254.983V254.983C242.454 256.591 237.017 259.046 232.033 262.265L227.813 264.992C219.312 270.484 209.909 274.432 200.035 276.655L197.786 277.161C183.738 280.324 169.01 277.813 156.804 270.175V270.175C151.779 267.031 146.028 265.234 140.107 264.958L120.055 264.022C115.996 263.833 111.941 264.47 108.135 265.895L77.0322 277.544C75.9848 277.937 75.1815 276.576 76.031 275.848L87 266.455" stroke="#F3F8FF"/>
<path d="M195.453 93.755L203.115 90.8855C206.92 89.4602 210.976 88.8229 215.035 89.0123L220.521 89.2682C223.15 89.3908 225.704 90.1889 227.936 91.5854C233.357 94.9777 239.898 96.0928 246.137 94.6882L246.908 94.5146C251.443 93.4934 255.763 91.6796 259.669 89.1566L261.47 87.9927C263.601 86.6159 265.927 85.5661 268.369 84.8782C273.599 83.4051 279.216 84.9464 282.961 88.8829L284.5 90.5L284 74L274.596 71.6893C267.905 70.0453 260.84 71.9764 255.916 76.7949C254.057 78.6144 251.803 79.9808 249.33 80.7881L243.57 82.6684C238.541 84.3098 233.108 84.2249 228.133 82.4271L227.72 82.2777C224.011 80.9373 220.103 80.2265 216.16 80.1748C211.189 80.1097 206.364 81.8574 202.589 85.091L194.452 92.059C193.603 92.7864 194.406 94.1472 195.453 93.755Z" stroke="#F3F8FF"/>
<path d="M232.5 93.7259L230.917 95.2817C227.181 98.953 222.648 101.712 217.671 103.342L205.809 107.229C197.305 110.015 188.113 109.869 179.702 106.815L177.054 105.853C170.321 103.408 163.226 102.111 156.065 102.015L155.132 102.003C146.109 101.882 137.353 105.063 130.511 110.947L113.009 126M205 130.5V130.5C197.865 132.493 190.22 131.382 183.948 127.439L177.535 123.408C173.538 120.895 168.958 119.457 164.242 119.235L148.409 118.49C144.154 118.29 139.905 118.998 135.945 120.568L123.5 125.5" stroke="#F3F8FF"/>
<path d="M91.7825 122.901L84.7685 118.689C81.2848 116.597 77.4123 115.235 73.3861 114.685L67.9452 113.941C65.3369 113.585 62.6807 113.906 60.2327 114.875C54.2862 117.227 47.6514 117.137 41.771 114.624L41.0441 114.314C36.7689 112.487 32.8497 109.919 29.4669 106.73L28.284 105.615C26.1876 103.638 23.8068 101.986 21.221 100.715L20.7734 100.495C16.3577 98.3239 11.1778 98.3564 6.78971 100.583C5.55149 101.211 4.11272 100.206 4.27665 98.8272L5.69452 86.9016L18.0407 86.5282C24.894 86.321 31.3934 89.5685 35.3427 95.1732C36.8785 97.3529 38.8961 99.1492 41.2388 100.423L46.4759 103.27C51.1234 105.796 56.4814 106.698 61.6999 105.833L62.1336 105.761C66.0243 105.115 69.9956 105.125 73.8831 105.79C78.7834 106.628 83.2107 109.221 86.3374 113.086L93.0748 121.415C93.7781 122.284 92.7413 123.477 91.7825 122.901Z" stroke="#F3F8FF"/>
</svg>
