<svg width="39" height="37" viewBox="0 0 39 37" fill="none" xmlns="http://www.w3.org/2000/svg">
<path d="M23.8066 24.4909C23.8066 30.5427 18.8314 35.4817 12.6533 35.4817C6.47517 35.4817 1.5 30.5427 1.5 24.4909C1.5 18.439 6.47517 13.5 12.6533 13.5C18.8314 13.5 23.8066 18.439 23.8066 24.4909Z" stroke="#E26EE5" stroke-width="3"/>
<g clip-path="url(#clip0_133_208)">
<path d="M35.3479 3.45933C35.2481 3.36084 35.0633 3.32818 34.6445 3.48391L28 5.5C27.6252 5.64193 27.2851 5.71854 27 5.99998C26.6003 6.39454 26.8143 6.81662 27 6.99998L28 7.98996L21.1835 15.023C20.2553 15.9393 19.9696 16.6958 20.4023 17.1229L21.4943 18.201C21.926 18.6271 22.6933 18.346 23.6215 17.4297L31 9.99998L32 11C32.1857 11.1833 32.5909 11.4038 33 11C33.2851 10.7185 33.3439 10.4042 33.5 10L35.3252 4.1559C35.4885 3.7345 35.4499 3.56002 35.3479 3.45933Z" fill="#E26EE5"/>
</g>
<defs>
<clipPath id="clip0_133_208">
<rect width="21.3194" height="8.16966" fill="white" transform="matrix(-0.71166 0.702524 -0.71166 -0.702524 38.2532 6.32745)"/>
</clipPath>
</defs>
</svg>
