<svg width="158" height="158" viewBox="0 0 158 158" fill="none" xmlns="http://www.w3.org/2000/svg">
<circle cx="78.5136" cy="78.5136" r="65" fill="#E26EE5"/>
<circle cx="78.5136" cy="78.5136" r="59.65" transform="rotate(-22.7123 78.5136 78.5136)" stroke="#F3F8FF" stroke-width="0.7" stroke-dasharray="67 67"/>
<circle cx="78.5859" cy="78.5859" r="54.8276" transform="rotate(-50.7785 78.5859 78.5859)" stroke="#F3F8FF" stroke-width="0.5" stroke-dasharray="67 67"/>
<circle cx="78.7232" cy="78.7232" r="48.5928" transform="rotate(-18.3504 78.7232 78.7232)" stroke="#F3F8FF" stroke-width="0.5" stroke-dasharray="67 67"/>
<path d="M39.125 82.15L54.35 77.575L58.475 96.55L44.975 99.55L42.575 99.85L40.9334 100.103C40.7281 100.134 40.5207 100.15 40.3129 100.15C39.7449 100.15 39.2476 99.7686 39.1003 99.22L35.0614 84.1788C35.0246 84.0415 35.0776 83.8957 35.1941 83.8141C35.5633 83.5557 35.9632 83.3444 36.3848 83.1852L39.125 82.15Z" fill="#49108B" stroke="#49108B"/>
<path d="M59.825 95.725L57.875 96.25L57.032 93.094C55.6462 87.9062 54.6741 82.6166 54.125 77.275L55.2734 76.9059C55.836 76.725 56.2093 76.1917 56.1866 75.6011C56.1639 75.0127 56.4573 74.4569 56.956 74.1436L63.8595 69.806C64.3461 69.5002 64.6777 68.9999 64.7697 68.4326L64.8231 68.1035C64.9808 67.1307 65.6063 66.2974 66.4963 65.8743L74.225 62.2L81.275 59.5L88.475 57.4L94.25 56.05L100.025 55.225L103.7 55.075L105.645 55.039C107.044 55.0131 108.44 55.1501 109.807 55.4472L109.853 55.4571C110.749 55.652 111.627 55.9257 112.475 56.275L112.925 57.55L113.433 58.5655C113.493 58.6857 113.588 58.7847 113.706 58.8494L113.8 58.9012C114.613 59.3482 115.358 59.9078 116.014 60.5636C116.153 60.7025 116.256 60.8727 116.316 61.0599L116.75 62.425H117.2L121.175 79.15C121.008 79.1916 120.906 79.359 120.945 79.5262L121.789 83.1616C121.818 83.289 121.966 83.3475 122.075 83.275V84.025C121.926 85.1194 121.621 86.1869 121.17 87.1951L120.575 88.525L120.166 89.1826C119.312 90.5568 118.034 91.6159 116.525 92.2L114.2 92.875L105.135 83.3021C104.929 83.085 104.695 82.897 104.439 82.7432C103.481 82.1683 102.343 81.9698 101.247 82.1862L98.303 82.7672C97.6059 82.9048 96.9364 83.1573 96.3221 83.5145C94.8377 84.3775 93.7024 85.733 93.1131 87.3457L91.175 92.65L88.3077 99.8531C88.1765 100.183 87.902 100.435 87.5622 100.537C82.1881 102.159 76.5205 102.564 70.9702 101.725L62.1294 100.388C61.7716 100.334 61.4709 100.09 61.3433 99.7517L59.825 95.725Z" fill="#F3F8FF" stroke="#F3F8FF"/>
<path d="M113.525 58.6L112.701 56.8254C112.624 56.6596 112.723 56.4655 112.902 56.4296L113.083 56.3933C113.463 56.3174 113.858 56.3901 114.186 56.5965L114.568 56.8371C115.317 57.3091 115.984 57.9013 116.542 58.59C116.827 58.9423 117.031 59.3534 117.138 59.7938L117.725 62.2L117.375 62.2808C117.022 62.3622 116.665 62.1591 116.556 61.8137L116.326 61.093C116.26 60.8836 116.147 60.6915 115.998 60.5305C115.501 59.9955 114.941 59.5233 114.329 59.1245L113.525 58.6Z" fill="#49108B"/>
<path d="M113.525 58.6L112.701 56.8254C112.624 56.6596 112.723 56.4655 112.902 56.4296L113.083 56.3933C113.463 56.3174 113.858 56.3901 114.186 56.5965L114.568 56.8371C115.317 57.3091 115.984 57.9013 116.542 58.59V58.59C116.827 58.9423 117.031 59.3534 117.138 59.7938L117.725 62.2M113.525 58.6L114.425 58.45L115.693 59.4946C116.531 60.1842 117.157 61.0959 117.5 62.125V62.125L117.725 62.2M113.525 58.6L114.329 59.1245C114.941 59.5233 115.501 59.9955 115.998 60.5305V60.5305C116.147 60.6915 116.26 60.8836 116.326 61.093L116.556 61.8137C116.665 62.1591 117.022 62.3622 117.375 62.2808L117.725 62.2" stroke="#49108B"/>
<path d="M121.325 79.15L121.025 79.3L121.925 83.2L122.382 83.0985C122.521 83.0675 122.642 82.9807 122.715 82.8584C122.785 82.7409 122.807 82.6003 122.774 82.4672L122.072 79.6007C121.991 79.2694 121.656 79.0673 121.325 79.15Z" fill="#49108B" stroke="#49108B"/>
<path d="M95.5652 88.7168L91.825 97.5142C91.1806 99.0297 89.853 100.148 88.25 100.525L93.425 87.4L94.0803 86.1985C94.8197 84.843 96.0129 83.791 97.4504 83.2273L98.2644 82.9081C98.7862 82.7035 99.3309 82.5628 99.8866 82.4893L101.026 82.3384C102.963 82.0821 104.891 82.8656 106.1 84.4L114.013 92.8214C114.125 92.94 114.058 93.135 113.898 93.1609L112.474 93.3906C112.145 93.4436 111.81 93.3355 111.575 93.1L105.231 86.2738C104.862 85.8757 104.451 85.5179 104.005 85.2062C103.463 84.8265 102.824 84.6083 102.163 84.5768L101.855 84.5622C100.661 84.5053 99.4748 84.7945 98.4404 85.3951L98.3366 85.4553C97.914 85.7007 97.525 86 97.1794 86.3456L97.1368 86.3882C96.4685 87.0565 95.9349 87.847 95.5652 88.7168Z" fill="#49108B" stroke="#49108B"/>
<path d="M61.4 100.225L59.675 95.95L59.3 96.1L57.575 96.55L58.0961 97.8986C58.5693 99.1236 59.6038 100.045 60.875 100.375L61.4 100.225Z" fill="#49108B" stroke="#49108B"/>
<path d="M53.825 75.9952V76.8707C53.825 77.0343 53.9833 77.1513 54.1397 77.1032L55.3634 76.7266C55.6116 76.6503 55.7876 76.4295 55.8068 76.1705C55.8811 75.1677 56.4293 74.2605 57.2825 73.7283L63.5 69.85L64.475 69.325L64.925 66.85L63.5 67.375L59.45 69.775L55.625 72.4L55.0305 72.8197C54.5894 73.131 54.2647 73.5804 54.1075 74.0968C53.9202 74.7122 53.825 75.3519 53.825 75.9952Z" fill="#49108B" stroke="#49108B"/>
</svg>
