<svg width="158" height="158" viewBox="0 0 158 158" fill="none" xmlns="http://www.w3.org/2000/svg">
<circle cx="78.5136" cy="78.5136" r="65" fill="#E26EE5"/>
<circle cx="78.5136" cy="78.5136" r="59.65" transform="rotate(-22.7123 78.5136 78.5136)" stroke="#F3F8FF" stroke-width="0.7" stroke-dasharray="67 67"/>
<circle cx="78.5859" cy="78.5859" r="54.8276" transform="rotate(-50.7785 78.5859 78.5859)" stroke="#F3F8FF" stroke-width="0.5" stroke-dasharray="67 67"/>
<circle cx="78.8204" cy="78.8204" r="51.5048" transform="rotate(-27.8184 78.8204 78.8204)" stroke="#F3F8FF" stroke-width="0.5" stroke-dasharray="67 67"/>
<circle cx="79.4356" cy="79.4356" r="43.0003" transform="rotate(-27.8184 79.4356 79.4356)" stroke="#F3F8FF" stroke-width="0.5" stroke-dasharray="67 67"/>
<path d="M45.2948 113.393L45.1799 112.282C45.1253 111.755 45.551 111.301 46.081 111.322C46.5753 111.342 46.9868 110.947 46.9868 110.452V109.83L46.834 108.378L46.4519 106.392L45.8406 103.946L45.6877 102.647V100.355L45.917 98.5972L46.3755 96.8396L47.4453 94.1651L48.0566 92.5604L48.0984 92.4099C48.3246 91.5955 48.4653 90.7596 48.518 89.916L48.5212 89.8643C48.5678 89.1182 48.5092 88.3693 48.347 87.6395C48.3118 87.4807 48.3968 87.3198 48.5478 87.2594L48.6679 87.2113L48.3584 87.0179C48.1648 86.8969 48.0257 86.7055 47.9703 86.484C47.7768 85.7098 47.797 84.8976 48.0288 84.1341L48.9736 81.0217L50.7311 75.5198L52.183 69.4066L53.1 64.4396L53.3376 63.1327C53.3821 62.8882 53.4943 62.661 53.6615 62.477L53.9439 62.1665C54.094 62.0014 54.2238 61.8189 54.3306 61.6231C54.5278 61.2616 54.6655 60.8708 54.7384 60.4656L55.2614 57.5599C55.2936 57.3815 55.2005 57.2041 55.0355 57.1291L54.5731 56.9189C54.5274 56.8981 54.4755 56.9316 54.4755 56.9818V57.0082C54.4755 57.0502 54.4296 57.0762 54.3935 57.0546C54.2031 56.9403 54.0724 56.7483 54.0359 56.5293L54.0327 56.5104C54.0223 56.4477 54.0184 56.384 54.0211 56.3205L54.0934 54.6585L54.2462 53.1302L54.5116 51.8032C54.5884 51.4191 54.7503 51.0572 54.9853 50.7439C55.0492 50.6586 55.1495 50.6085 55.256 50.6085H55.6349C55.777 50.6085 55.9171 50.5754 56.0442 50.5119C56.1131 50.4774 56.1566 50.407 56.1566 50.33V49.4652C56.1566 49.2605 56.1865 49.057 56.2453 48.8611L56.2781 48.7517C56.3488 48.5159 56.477 48.3013 56.651 48.1273C56.7269 48.0514 56.8253 48.0022 56.9316 47.987L57.3028 47.934C57.605 47.8476 57.7903 47.5438 57.7286 47.2356L57.5084 46.1345C57.4748 45.9667 57.5144 45.7925 57.6171 45.6556C57.6592 45.5994 57.7276 45.5694 57.7974 45.5763L57.9183 45.5884C58.2663 45.6232 58.5995 45.7468 58.886 45.9474C59.0302 46.0483 59.2295 45.9537 59.2424 45.7781L59.4425 43.0434L59.7481 40.4453V39.5679C59.7481 39.3386 59.7762 39.1102 59.8318 38.8877C59.876 38.7112 59.9903 38.5603 60.1483 38.47L60.2707 38.4C60.7295 38.1379 61.2487 38 61.777 38C62.1528 38 62.5248 38.0744 62.8717 38.2189L62.8818 38.2232C63.1332 38.3279 63.3597 38.4846 63.5464 38.6829L66.9311 42.2792L69.1997 44.5972C70.0237 45.4391 70.9953 46.1224 72.0663 46.6133L72.1856 46.668C72.243 46.6943 72.3105 46.6838 72.3572 46.6413L72.481 46.5288C73.4607 45.6381 74.5853 44.9214 75.8063 44.4093C76.1545 44.2633 76.5178 44.1565 76.8897 44.0909L77.5423 43.9757C79.3168 43.6626 81.1341 43.6832 82.901 44.0366L83.666 44.1896L86.075 45.0138C86.385 45.1198 86.6235 45.3708 86.7135 45.6858C86.918 46.4018 86.8892 47.1643 86.631 47.8627L85.7292 50.3028L85.6329 50.5679C85.4935 50.9511 85.3266 51.3236 85.1333 51.6826C84.9708 51.9844 84.8435 52.3039 84.754 52.6348L80.004 70.2033C79.5423 71.9109 79.2187 73.6529 79.0362 75.4123L78.3424 82.1027C78.2753 82.75 78.347 83.4043 78.5528 84.0217C78.7505 84.6146 79.0572 85.1653 79.4573 85.6453L79.8975 86.1735C80.4702 86.8608 81.1506 87.4508 81.9121 87.9204L85.3472 90.0387L88.1745 91.3377L93.2943 93.4774L101.472 97.6014C101.979 97.8566 102.449 98.1765 102.873 98.5532C104.278 99.8022 105.801 100.913 107.419 101.87L110.23 103.533C110.349 103.603 110.484 103.641 110.623 103.641C111.02 103.641 111.394 103.824 111.638 104.137L112.017 104.624C112.215 104.879 112.333 105.189 112.355 105.512C112.384 105.944 112.362 106.378 112.291 106.805L111.634 110.747V111.991C111.634 112.628 112.12 113.16 112.755 113.218C113.072 113.247 113.315 113.513 113.315 113.832V115.485C113.315 116.31 112.691 117.001 111.871 117.085L96.1434 118.701C94.7332 118.846 93.3114 118.577 92.0523 117.925C91.8642 117.828 91.6555 117.777 91.4438 117.777H91.2591C90.7488 117.777 90.2563 117.59 89.8749 117.251L89.0915 116.555L87.334 116.173L76.3302 114.721C75.5115 114.721 74.7397 115.103 74.243 115.753L73.111 117.237C72.9243 117.481 72.6352 117.627 72.3274 117.63L50.3248 117.879C47.7411 117.908 45.5607 115.964 45.2948 113.393Z" fill="#49108B" stroke="#49108B"/>
<path d="M52.9472 111.358L46.1409 111.293C45.5365 111.287 45.0652 111.815 45.1387 112.415L45.4585 115.026L45.57 117.034C45.5945 117.475 45.9064 117.847 46.3362 117.948C47.5834 118.241 48.8502 118.444 50.1268 118.553L50.884 118.618L59.5953 118.465L63.4925 118.083L71.4231 117.693C72.3058 117.65 73.1244 117.219 73.6606 116.517L75.0311 114.721L52.9472 111.358Z" fill="#F3F8FF" stroke="#F3F8FF"/>
<path d="M91.8918 117.704L91.2142 116.702C90.84 116.149 91.1879 115.397 91.8516 115.323L110.905 113.214C111.491 113.149 112.083 113.146 112.67 113.204C113.05 113.242 113.357 113.532 113.418 113.909L113.592 115.003C113.61 115.114 113.574 115.226 113.494 115.306C113.428 115.372 113.392 115.461 113.392 115.554V116.173C113.252 116.637 112.851 116.973 112.37 117.03L96.9623 118.847L96.5957 118.87C95.2262 118.956 93.8543 118.743 92.5746 118.248C92.2969 118.141 92.0587 117.951 91.8918 117.704Z" fill="#F3F8FF" stroke="#F3F8FF"/>
<path d="M57.375 64.6816L56.4182 62.3373C56.3464 62.1613 56.3094 61.973 56.3094 61.7828C56.3094 61.4674 56.3603 61.1541 56.46 60.8548L56.6937 60.1537C56.7429 60.0063 56.8154 59.8678 56.9087 59.7434C56.9666 59.6663 57.0445 59.6065 57.134 59.5707L57.1454 59.5662C57.2989 59.5048 57.4652 59.4826 57.6295 59.5015L60.2324 59.8019C60.9701 59.887 61.6795 60.1353 62.3093 60.5289L62.9257 60.9142C63.5007 61.2736 64.1455 61.5068 64.8175 61.5985C65.2575 61.6585 65.7025 61.6738 66.1456 61.6443L66.4333 61.6251C66.5604 61.6166 66.685 61.5858 66.8015 61.534C67.1331 61.3867 67.5044 61.3544 67.8564 61.4424L67.9245 61.4594L71.4346 61.8724C71.6881 61.9022 71.9293 61.9986 72.1335 62.1518C72.3299 62.2991 72.5606 62.394 72.8039 62.4276L74.5302 62.6657C74.6068 62.6763 74.6846 62.6584 74.7489 62.6155C74.9827 62.4596 75.2575 62.3764 75.5386 62.3764H75.787C76.0976 62.3764 76.4077 62.4028 76.7138 62.4553L78.9283 62.8349L79.5935 62.93C80.9313 63.1211 82.2532 63.4097 83.5489 63.7936C83.6254 63.8163 83.6936 63.8605 83.7455 63.9211L83.8182 64.0059C84.015 64.2354 84.1169 64.5313 84.1031 64.8333L84.0676 65.6152C84.0553 65.8867 84.1661 66.1492 84.3692 66.3298C84.5978 66.533 84.7078 66.8382 84.6612 67.1405L84.5112 68.1158C84.4636 68.4252 84.2113 68.6624 83.8995 68.6907L83.8049 68.6993C83.683 68.7104 83.5896 68.8126 83.5896 68.9351V69.1827C83.5896 69.2681 83.5285 69.3413 83.4445 69.3566L83.1318 69.4134C82.8779 69.4596 82.6319 69.5416 82.4011 69.657C82.2294 69.7429 82.0869 69.8777 81.9916 70.0444L81.9114 70.1847C81.8594 70.2757 81.8321 70.3788 81.8321 70.4836V71.3934L81.6498 72.9119C81.6207 73.1544 81.4645 73.363 81.24 73.4593C81.1265 73.5079 81.0042 73.533 80.8807 73.533H80.6022C80.338 73.533 80.1089 73.7154 80.0495 73.9727L79.9217 74.5264L79.8193 75.1921C79.7917 75.3716 79.9177 75.5384 80.0978 75.5609C80.2591 75.5811 80.3802 75.7182 80.3802 75.8808V76.1311L79.7279 82.0012C79.7045 82.2126 79.6438 82.4181 79.5487 82.6083C79.4943 82.717 79.396 82.7972 79.2786 82.8285L78.4504 83.0493C78.3743 83.0696 78.3254 83.1436 78.3365 83.2216C78.3742 83.4859 78.4476 83.7438 78.5546 83.9883L78.6048 84.103C78.8198 84.5946 79.0867 85.0618 79.4008 85.4968L79.6975 85.9075C79.8467 86.1141 80.0122 86.3085 80.1925 86.4887C80.6726 86.9689 81.2066 87.3918 81.784 87.7492L84.0616 89.1592C85.1718 89.8465 86.3315 90.4505 87.5311 90.9663L93.3707 93.4774L100.707 97.1453L102.106 97.845C102.271 97.9273 102.356 98.1129 102.311 98.2915C102.268 98.4641 102.1 98.5746 101.924 98.5454L101.581 98.4881C101.102 98.4083 100.635 98.2682 100.191 98.071L99.484 97.7566L96.4273 96.0755L92.3009 94.0887L88.0217 92.4076L86.2962 91.7699C85.1056 91.3299 83.9575 90.7825 82.8661 90.1344C82.3302 89.8163 81.8178 89.4603 81.3328 89.0691L80.8844 88.7075C80.0914 88.068 79.3578 87.358 78.6926 86.5864L77.7821 85.5302L77.024 84.4155C76.7219 83.9712 76.1227 83.845 75.6671 84.1298L74.0377 85.1481C72.5629 86.3687 71.1916 87.7091 69.9378 89.1558L69.8349 89.2745L65.8998 95.2807C65.622 95.7047 65.265 96.071 64.8482 96.3595C64.6086 96.5254 64.3408 96.6461 64.0579 96.7158L59.9132 97.737C59.454 97.8501 58.9736 97.8456 58.5166 97.7237C58.2197 97.6445 57.9414 97.5077 57.6973 97.3211L57.5085 97.1767C57.0172 96.801 56.5811 96.3582 56.213 95.8613L53.9273 92.7755C53.7855 92.5842 53.6937 92.3605 53.66 92.1248C53.6434 92.0083 53.6447 91.89 53.6641 91.774L53.9327 90.1623C53.9882 89.8294 53.9689 89.4882 53.8761 89.1637C53.8681 89.1358 53.8578 89.1086 53.8451 89.0824L51.7221 84.6949C51.6221 84.4882 51.5436 84.2717 51.4879 84.0489C51.4424 83.8667 51.4348 83.677 51.4657 83.4918L51.4953 83.3142L53.3064 75.1348C53.6709 73.4888 54.4904 71.9782 55.6715 70.7752L57.1312 69.2884C57.682 68.7275 57.9906 67.9728 57.9906 67.1867V67.1142L57.9808 67.0311C57.8858 66.2241 57.6821 65.4338 57.375 64.6816Z" fill="#F3F8FF" stroke="#F3F8FF"/>
</svg>
