<svg width="281" height="334" viewBox="0 0 281 334" fill="none" xmlns="http://www.w3.org/2000/svg">
<mask id="mask0_27_229" style="mask-type:alpha" maskUnits="userSpaceOnUse" x="0" y="0" width="281" height="334">
<rect x="1.5" y="1.5" width="278" height="331" fill="#49108B" stroke="white" stroke-width="3"/>
</mask>
<g mask="url(#mask0_27_229)">
<path d="M22 109.179C0.825634 100.067 -14 79.0147 -14 54.5C-14 21.6391 12.6391 -5 45.5 -5C78.3609 -5 105 21.6391 105 54.5C105 82.1796 86.0993 105.445 60.5 112.093" stroke="#F3F8FF"/>
<path d="M90.2423 93.6982C92.5915 116.343 111.734 134 135 134C159.853 134 180 113.853 180 89C180 64.1472 159.853 44 135 44C123.452 44 112.92 48.3497 104.954 55.5" stroke="#F3F8FF"/>
<path d="M138.747 44C151.667 16.8031 179.387 -2 211.5 -2C255.959 -2 292 34.0411 292 78.5C292 113.208 270.035 142.785 239.248 154.09" stroke="#F3F8FF"/>
<circle cx="65.5" cy="207.5" r="44" stroke="#F3F8FF"/>
<circle cx="236" cy="258" r="55.5" stroke="#F3F8FF"/>
<path d="M32 236.118C6.88947 245.455 -11 269.638 -11 298C-11 334.451 18.5492 364 55 364C91.4508 364 121 334.451 121 298C121 275.045 109.281 254.827 91.5 243.003" stroke="#F3F8FF"/>
<path d="M189.879 227.135C184.05 216.337 172.632 209 159.5 209C140.446 209 125 224.446 125 243.5C125 262.554 140.446 278 159.5 278C167.958 278 175.706 274.956 181.707 269.904" stroke="#F3F8FF"/>
<circle cx="41" cy="114" r="19.5" stroke="#F3F8FF"/>
<path d="M178 102.439C214 106.419 242 136.94 242 174C242 183.994 238.859 193.655 233.67 202.5M114 128.741C103.994 141.107 98 156.854 98 174C98 175.342 98.0367 176.676 98.1092 178M109.147 212.5C113.95 220.075 120.128 226.692 127.331 232" stroke="#F3F8FF"/>
</g>
</svg>
