<svg width="406" height="334" viewBox="0 0 406 334" fill="none" xmlns="http://www.w3.org/2000/svg">
<mask id="mask0_27_216" style="mask-type:alpha" maskUnits="userSpaceOnUse" x="0" y="0" width="406" height="334">
<rect x="1.5" y="1.5" width="403" height="331" fill="#D9D9D9" stroke="white" stroke-width="3"/>
</mask>
<g mask="url(#mask0_27_216)">
<path d="M284 167C284 188.483 275.466 209.085 260.276 224.276C245.085 239.466 224.483 248 203 248C181.517 248 160.915 239.466 145.724 224.276C130.534 209.085 122 188.483 122 167H124.271C124.271 187.88 132.566 207.905 147.33 222.67C162.095 237.434 182.12 245.729 203 245.729C223.88 245.729 243.905 237.434 258.67 222.67C273.434 207.905 281.729 187.88 281.729 167H284Z" fill="#F3F8FF"/>
<path d="M175.907 90.6653C191.957 84.9689 209.394 84.4763 225.74 89.2576C242.086 94.039 256.509 103.851 266.959 117.299L265.663 118.306C255.425 105.131 241.294 95.5177 225.279 90.8333C209.265 86.1489 192.181 86.6314 176.456 92.2124L175.907 90.6653Z" fill="#F3F8FF"/>
<path d="M318 167C318 192.007 309.849 216.332 294.782 236.29C279.715 256.248 258.553 270.751 234.502 277.601C210.452 284.451 184.824 283.275 161.502 274.252C138.18 265.228 118.435 248.848 105.259 227.595C92.0827 206.341 86.1933 181.371 88.4831 156.47C90.773 131.568 101.117 108.091 117.949 89.5966C134.78 71.1022 157.181 58.5981 181.758 53.9789C206.334 49.3598 231.747 52.8774 254.144 63.9987L252.433 67.4446C230.785 56.6954 206.223 53.2955 182.468 57.7601C158.714 62.2247 137.062 74.3105 120.794 92.1862C104.526 110.062 94.5276 132.753 92.3143 156.822C90.1011 180.89 95.7935 205.025 108.529 225.567C121.264 246.11 140.349 261.942 162.891 270.664C185.432 279.385 210.203 280.522 233.448 273.901C256.694 267.28 277.148 253.262 291.711 233.972C306.274 214.682 314.153 191.17 314.153 167H318Z" fill="#F3F8FF"/>
<path d="M108.42 48.0097C133.266 28.2611 163.67 16.7852 195.369 15.1917C227.067 13.5982 258.469 21.9671 285.17 39.1245C311.871 56.2819 332.531 81.367 344.253 110.861C355.975 140.356 358.171 172.779 350.532 203.585L346.981 202.704C354.436 172.64 352.293 140.997 340.853 112.212C329.413 83.4281 309.25 58.9468 283.192 42.2024C257.134 25.458 226.488 17.2905 195.552 18.8456C164.617 20.4008 134.944 31.6005 110.697 50.8738L108.42 48.0097Z" fill="#F3F8FF"/>
<path d="M301.396 282.854C277.831 302.869 248.722 315.221 217.954 318.263C187.186 321.304 156.222 314.891 129.194 299.878C102.166 284.866 80.3582 261.968 66.6812 234.24C53.0042 206.512 48.1082 175.272 52.6463 144.689L57.515 145.411C53.1238 175.004 57.8613 205.232 71.0954 232.062C84.3295 258.893 105.431 281.049 131.584 295.576C157.737 310.102 187.698 316.308 217.47 313.364C247.241 310.421 275.407 298.469 298.21 279.103L301.396 282.854Z" fill="#F3F8FF"/>
<path d="M397 167C397 267.516 310.143 349 203 349C95.8568 349 9 267.516 9 167C9 66.4842 95.8568 -15 203 -15C310.143 -15 397 66.4842 397 167ZM13.8403 167C13.8403 265.008 98.53 344.459 203 344.459C307.47 344.459 392.16 265.008 392.16 167C392.16 68.992 307.47 -10.4591 203 -10.4591C98.53 -10.4591 13.8403 68.992 13.8403 167Z" fill="#F3F8FF"/>
<path d="M113.32 351.978C159.849 371.7 212.316 375.367 261.449 362.33C310.582 349.294 353.22 320.394 381.829 280.736L378.729 278.77C350.614 317.742 308.714 346.143 260.43 358.954C212.146 371.765 160.587 368.161 114.862 348.78L113.32 351.978Z" fill="#F3F8FF"/>
<path d="M418.593 154.552C415.49 107.198 394.796 62.3576 360.104 27.82C325.412 -6.7176 278.915 -28.7708 228.687 -34.5095L228.317 -31.662C277.835 -26.0044 323.676 -4.26277 357.877 29.7868C392.078 63.8363 412.48 108.043 415.539 154.728L418.593 154.552Z" fill="#F3F8FF"/>
<path d="M86.7604 -4.55713C57.0773 13.0488 32.4082 37.1619 14.8814 65.7018L17.5327 67.1332C34.8118 38.9966 59.1323 15.2243 88.3959 -2.13283L86.7604 -4.55713Z" fill="#F3F8FF"/>
<path d="M20.0789 276.326C34.0948 296.887 51.9494 314.91 72.7862 329.531L74.6192 327.234C54.0769 312.82 36.4745 295.052 22.6567 274.781L20.0789 276.326Z" fill="#F3F8FF"/>
</g>
</svg>
