<svg width="158" height="158" viewBox="0 0 158 158" fill="none" xmlns="http://www.w3.org/2000/svg">
<circle cx="78.5136" cy="78.5136" r="65" fill="#E26EE5"/>
<circle cx="78.5136" cy="78.5136" r="59.65" transform="rotate(-22.7123 78.5136 78.5136)" stroke="#F3F8FF" stroke-width="0.7" stroke-dasharray="67 67"/>
<circle cx="78.5859" cy="78.5859" r="54.8276" transform="rotate(-50.7785 78.5859 78.5859)" stroke="#F3F8FF" stroke-width="0.5" stroke-dasharray="67 67"/>
<circle cx="78.9891" cy="78.9891" r="48.9404" transform="rotate(-32.7783 78.9891 78.9891)" stroke="#F3F8FF" stroke-width="0.5" stroke-dasharray="67 67"/>
<circle cx="79.0777" cy="79.0776" r="38.1519" transform="rotate(28.9699 79.0777 79.0776)" stroke="#F3F8FF" stroke-width="0.5" stroke-dasharray="67 67"/>
<mask id="mask0_27_197" style="mask-type:alpha" maskUnits="userSpaceOnUse" x="13" y="13" width="131" height="131">
<circle cx="78.5136" cy="78.5136" r="65" fill="#E26EE5"/>
</mask>
<g mask="url(#mask0_27_197)">
<path d="M61.8821 106.148L62.5371 152H71.5764L72.3624 106.148L74.8058 38.7622C74.836 37.9311 74.6952 37.1026 74.3921 36.3281C73.9244 35.1329 73.0902 34.1165 72.0092 33.4246L71.7174 33.2379C70.8555 32.6862 69.8535 32.393 68.8301 32.393H65.0995C64.0267 32.393 62.9778 32.7106 62.0851 33.3057L61.8449 33.4659C60.8429 34.1338 60.0547 35.0764 59.5745 36.1808C59.1964 37.0504 59.0207 37.9944 59.0604 38.9418L61.8821 106.148Z" fill="#F3F8FF" stroke="#F3F8FF"/>
<path d="M61.8821 106.148L62.5371 152H71.5764L72.3624 106.148L74.8058 38.7622C74.836 37.9311 74.6952 37.1026 74.3921 36.3281C73.9244 35.1329 73.0902 34.1165 72.0092 33.4246L71.7174 33.2379C70.8555 32.6862 69.8535 32.393 68.8301 32.393H65.0995C64.0267 32.393 62.9778 32.7106 62.0851 33.3057L61.8449 33.4659C60.8429 34.1338 60.0547 35.0764 59.5745 36.1808C59.1964 37.0504 59.0207 37.9944 59.0604 38.9418L61.8821 106.148Z" fill="#F3F8FF" stroke="#F3F8FF"/>
<path d="M62.7991 151.607V140.21L62.1441 138.507V136.279H60.9202C60.5996 136.279 60.3548 135.993 60.4042 135.677L60.4713 135.247C60.7962 133.168 61.5924 131.191 62.7991 129.467L65.9717 123.732C66.1259 123.453 66.3332 123.208 66.5819 123.009C66.7477 122.876 66.9802 122.866 67.1569 122.984L67.2165 123.024C67.4986 123.212 67.7296 123.467 67.8889 123.766L70.661 128.978C70.834 129.303 71.0451 129.606 71.2898 129.882C72.417 131.15 73.149 132.72 73.3958 134.398L73.5976 135.77C73.637 136.038 73.4289 136.279 73.1574 136.279H71.7074V138.507L71.1834 140.21V151.607H62.7991Z" fill="#49108B" stroke="#49108B"/>
<path d="M64.7642 91.3984V115.45C64.7642 115.667 64.9401 115.843 65.1572 115.843C65.3743 115.843 65.5502 115.667 65.5502 115.45V95.5768C65.5502 95.3883 65.6444 95.2123 65.8012 95.1078C65.8938 95.0461 66.0026 95.0131 66.1139 95.0131H67.5639C67.7042 95.0131 67.8426 95.0458 67.9682 95.1086C68.1723 95.2107 68.3013 95.4193 68.3013 95.6476V115.515C68.3013 115.696 68.4479 115.843 68.6288 115.843C68.8097 115.843 68.9563 115.696 68.9563 115.515V91.3984C68.9563 91.2781 68.9207 91.1606 68.8541 91.0606C68.5906 90.6654 68.147 90.428 67.672 90.428H66.0485C65.5735 90.428 65.1299 90.6654 64.8665 91.0606C64.7998 91.1606 64.7642 91.2781 64.7642 91.3984Z" fill="#49108B" stroke="#49108B"/>
<path d="M60.3842 36.117L59.7391 36.838C59.5961 36.9977 59.3329 36.8751 59.3632 36.663C59.3829 36.5247 59.4249 36.3905 59.4873 36.2655L59.917 35.4061L60.441 34.6201L61.0775 33.9836C61.3512 33.7099 61.6513 33.4639 61.9734 33.2492C62.9389 32.6055 64.0734 32.262 65.2338 32.262H68.2962C69.4195 32.262 70.5274 32.5236 71.5322 33.0259C72.0834 33.3016 72.5972 33.6465 73.061 34.0523L73.4105 34.3581L74.1757 35.6698C74.2759 35.8416 74.3402 36.0319 74.3649 36.2292C74.3944 36.4651 74.1049 36.6009 73.9423 36.4275L73.1988 35.6345C72.7314 35.1359 72.1893 34.7131 71.5919 34.3813L71.1479 34.1346C70.4838 33.7657 69.7367 33.5721 68.9771 33.5721H64.1589C63.6994 33.5721 63.2501 33.7081 62.8678 33.963C61.9523 34.5733 61.1178 35.297 60.3842 36.117Z" fill="#49108B" stroke="#49108B"/>
<path d="M67.3402 73.9787C67.8348 73.9787 68.2502 74.1841 68.5862 74.5947C68.9175 75.0007 69.0832 75.5211 69.0832 76.1557C69.0832 76.5057 69.0318 76.7717 68.9292 76.9537C68.9198 76.9724 68.9152 76.9934 68.9152 77.0167C68.9152 77.0401 68.9408 77.1264 68.9922 77.2757C69.0435 77.4251 69.0692 77.5767 69.0692 77.7307C69.0692 77.8801 69.0248 77.9547 68.9362 77.9547C68.8148 77.9547 68.4998 77.8077 67.9912 77.5137C67.4778 77.2197 67.1325 76.9584 66.9552 76.7297C66.8805 76.6317 66.8432 76.5361 66.8432 76.4427C66.8432 76.3494 66.8688 76.3027 66.9202 76.3027C66.9295 76.3027 66.9878 76.3354 67.0952 76.4007C67.1978 76.4614 67.3355 76.5244 67.5082 76.5897C67.6808 76.6504 67.8302 76.6807 67.9562 76.6807C68.0775 76.6807 68.1802 76.6691 68.2642 76.6457C68.3482 76.6177 68.4345 76.5524 68.5232 76.4497C68.6072 76.3424 68.6492 76.2141 68.6492 76.0647C68.6492 75.9107 68.6305 75.7684 68.5932 75.6377C68.5558 75.5024 68.4975 75.3694 68.4182 75.2387C68.3388 75.1081 68.2222 75.0007 68.0682 74.9167C67.9142 74.8327 67.7368 74.7907 67.5362 74.7907C67.3308 74.7907 67.1232 74.8537 66.9132 74.9797C66.7032 75.1057 66.5258 75.2434 66.3812 75.3927C66.2318 75.5421 66.0638 75.6797 65.8772 75.8057C65.6858 75.9317 65.5015 75.9947 65.3242 75.9947C65.1422 75.9947 64.9742 75.9481 64.8202 75.8547C64.6662 75.7567 64.5448 75.6377 64.4562 75.4977C64.3628 75.3531 64.2858 75.1897 64.2252 75.0077C64.1225 74.6997 64.0712 74.4267 64.0712 74.1887C64.0712 73.9507 64.0828 73.7757 64.1062 73.6637C64.1248 73.5471 64.1435 73.4607 64.1622 73.4047C64.1808 73.3441 64.1902 73.3067 64.1902 73.2927C64.1902 73.2787 64.1832 73.2601 64.1692 73.2367C64.0898 73.0967 64.0502 72.9451 64.0502 72.7817C64.0502 72.6184 64.0898 72.5367 64.1692 72.5367C64.2998 72.5367 64.5938 72.6931 65.0512 73.0057C65.5038 73.3137 65.7302 73.5447 65.7302 73.6987C65.7302 73.8247 65.7022 73.8877 65.6462 73.8877C65.6368 73.8877 65.6042 73.8714 65.5482 73.8387C65.3615 73.7361 65.1492 73.6847 64.9112 73.6847C64.7805 73.6847 64.6802 73.7407 64.6102 73.8527C64.5355 73.9647 64.4982 74.0814 64.4982 74.2027C64.4982 74.3194 64.5168 74.4407 64.5542 74.5667C64.5915 74.6881 64.6662 74.8117 64.7782 74.9377C64.8902 75.0591 65.0255 75.1197 65.1842 75.1197C65.3382 75.1197 65.5015 75.0614 65.6742 74.9447C65.8422 74.8234 65.9985 74.6927 66.1432 74.5527C66.2832 74.4081 66.4628 74.2774 66.6822 74.1607C66.8968 74.0394 67.1162 73.9787 67.3402 73.9787ZM67.2142 73.519C67.2142 73.5517 67.1932 73.5727 67.1512 73.582C67.0718 73.582 66.9808 73.526 66.8782 73.414C66.7755 73.302 66.7102 73.2134 66.6822 73.148C66.6542 73.078 66.6355 72.8517 66.6262 72.469L66.5142 72.371C64.8762 70.9524 64.0572 69.9677 64.0572 69.417C64.0525 69.3704 64.0502 69.3167 64.0502 69.256C64.0502 68.934 64.1272 68.773 64.2812 68.773C64.3092 68.773 64.3838 68.8034 64.5052 68.864L65.1352 69.179C65.4338 69.3284 65.7372 69.473 66.0452 69.613C67.7112 70.369 68.8032 70.8077 69.3212 70.929C69.3585 70.929 69.3772 70.978 69.3772 71.076C69.3772 71.1694 69.3235 71.2837 69.2162 71.419C69.1135 71.5544 69.0225 71.622 68.9432 71.622C68.7985 71.622 68.5255 71.5077 68.1242 71.279C67.7228 71.0504 67.4615 70.936 67.3402 70.936C67.1768 70.936 67.0952 71.2534 67.0952 71.888C67.0952 71.9814 67.0998 72.126 67.1092 72.322L67.4592 72.588C67.8978 72.9147 68.4415 73.2274 69.0902 73.526C69.2068 73.5774 69.2652 73.7337 69.2652 73.995C69.2652 74.2564 69.2278 74.387 69.1532 74.387C69.1018 74.387 68.8778 74.2424 68.4812 73.953C68.0798 73.659 67.6365 73.3114 67.1512 72.91C67.1605 72.98 67.1698 73.0687 67.1792 73.176C67.1885 73.2834 67.1978 73.3674 67.2072 73.428C67.2118 73.484 67.2142 73.5144 67.2142 73.519ZM66.3112 70.614C66.0918 70.432 65.8702 70.2967 65.6462 70.208C65.4222 70.1147 65.2705 70.068 65.1912 70.068C65.1118 70.068 65.0722 70.1077 65.0722 70.187C65.0722 70.327 65.2215 70.558 65.5202 70.88C65.8142 71.202 66.1828 71.552 66.6262 71.93L66.6402 71.167C66.6402 70.9804 66.5305 70.796 66.3112 70.614ZM69.0272 69.3043L69.0202 69.4023C69.0202 69.4677 69.0412 69.5167 69.0832 69.5493C69.2185 69.708 69.2862 69.9227 69.2862 70.1933C69.2862 70.3333 69.2558 70.4033 69.1952 70.4033H69.1742C69.1228 70.4033 68.8195 70.2423 68.2642 69.9203C67.7042 69.5937 67.0812 69.2343 66.3952 68.8423C65.7092 68.4457 65.2378 68.1913 64.9812 68.0793C64.7245 67.9627 64.5122 67.9043 64.3442 67.9043H64.2532C64.1318 67.9043 64.0712 67.6547 64.0712 67.1553C64.0712 66.9033 64.1178 66.7773 64.2112 66.7773C64.2485 66.7773 64.2858 66.796 64.3232 66.8333C64.9298 67.2067 65.7955 67.7013 66.9202 68.3173L67.0952 68.4153C67.2118 68.4807 67.2958 68.5273 67.3472 68.5553C67.3938 68.5833 67.4778 68.6277 67.5992 68.6883C67.7158 68.7443 67.8115 68.7863 67.8862 68.8143C68.0962 68.8937 68.2595 68.9333 68.3762 68.9333C68.5488 68.9333 68.6352 68.7793 68.6352 68.4713V68.4223C68.6352 68.231 68.5955 68.021 68.5162 67.7923C68.3575 67.3443 68.0542 66.9803 67.6062 66.7003C67.5642 66.6817 67.5432 66.6303 67.5432 66.5463C67.5432 66.4577 67.5805 66.4133 67.6552 66.4133C67.7672 66.4133 67.9678 66.488 68.2572 66.6373C68.5465 66.7867 68.7612 66.922 68.9012 67.0433C68.9852 67.104 69.0272 67.2207 69.0272 67.3933C69.0365 67.566 69.0412 67.9393 69.0412 68.5133L69.0272 69.3043ZM65.2052 61.5947C65.4665 61.5947 65.7652 61.6484 66.1012 61.7557C66.4372 61.8584 66.7802 62.0124 67.1302 62.2177C67.4802 62.423 67.8045 62.661 68.1032 62.9317C68.3972 63.1977 68.6398 63.515 68.8312 63.8837C69.0178 64.2477 69.1112 64.6257 69.1112 65.0177C69.1112 65.405 69.0038 65.7107 68.7892 65.9347C68.5698 66.1587 68.2688 66.2707 67.8862 66.2707C67.6248 66.2707 67.3262 66.2194 66.9902 66.1167C66.6542 66.0094 66.3112 65.853 65.9612 65.6477C65.6112 65.4424 65.2892 65.2067 64.9952 64.9407C64.7012 64.67 64.4608 64.3527 64.2742 63.9887C64.0828 63.62 63.9872 63.242 63.9872 62.8547C63.9872 62.4627 64.0945 62.1547 64.3092 61.9307C64.5238 61.7067 64.8225 61.5947 65.2052 61.5947ZM65.1422 62.4207C64.6288 62.4207 64.3722 62.6074 64.3722 62.9807C64.3722 63.2934 64.5705 63.6434 64.9672 64.0307C65.3638 64.4134 65.8445 64.74 66.4092 65.0107C66.9692 65.2767 67.4708 65.4097 67.9142 65.4097C68.4275 65.4097 68.6842 65.223 68.6842 64.8497C68.6842 64.5417 68.4858 64.194 68.0892 63.8067C67.6925 63.4194 67.2142 63.0927 66.6542 62.8267C66.0895 62.556 65.5855 62.4207 65.1422 62.4207ZM68.2292 59.9178C68.3412 59.9784 68.3972 60.0811 68.3972 60.2258C68.3972 60.3658 68.3785 60.4591 68.3412 60.5058C68.2992 60.5478 68.1942 60.5688 68.0262 60.5688C67.8535 60.5688 67.4568 60.4778 66.8362 60.2958C66.2108 60.1138 65.8515 60.0228 65.7582 60.0228C65.6602 60.0228 65.6112 60.0414 65.6112 60.0788C65.6112 60.1348 65.6602 60.2048 65.7582 60.2888C65.8515 60.3728 65.9448 60.4428 66.0382 60.4988L66.1852 60.5828C66.6705 60.8814 67.1582 61.1544 67.6482 61.4018C68.1335 61.6444 68.4905 61.8241 68.7192 61.9408C68.9432 62.0528 69.0855 62.1508 69.1462 62.2348C69.2068 62.3188 69.2372 62.4401 69.2372 62.5988C69.2372 62.7528 69.2022 62.8298 69.1322 62.8298H69.1112C69.0645 62.8298 68.8475 62.7084 68.4602 62.4658C67.0368 61.5698 65.8748 60.8954 64.9742 60.4428C64.7595 60.3354 64.5588 60.2818 64.3722 60.2818H64.2882C64.2042 60.2818 64.1365 60.1861 64.0852 59.9948C64.0338 59.7988 64.0082 59.6378 64.0082 59.5118V59.2808C64.0082 59.0848 64.0455 58.9401 64.1202 58.8468C64.1482 58.8048 64.1855 58.7838 64.2322 58.7838C64.2788 58.7838 64.6032 58.8771 65.2052 59.0638C65.8025 59.2458 66.1618 59.3368 66.2832 59.3368C66.4045 59.3368 66.4652 59.3181 66.4652 59.2808C66.4652 59.1641 66.3228 58.9588 66.0382 58.6648C65.7488 58.3708 65.4035 58.0348 65.0022 57.6568C64.6662 57.3488 64.3768 57.0548 64.1342 56.7748C64.0782 56.7141 64.0455 56.6418 64.0362 56.5578C64.0082 56.3758 63.9942 56.1821 63.9942 55.9768C63.9942 55.7668 64.0408 55.6618 64.1342 55.6618C64.1528 55.6618 64.1668 55.6641 64.1762 55.6688C64.1855 55.6688 64.3278 55.7551 64.6032 55.9278C64.8738 56.1004 65.2122 56.3104 65.6182 56.5578C66.0195 56.8051 66.4372 57.0524 66.8712 57.2998C67.3005 57.5471 67.7112 57.7571 68.1032 57.9298C68.4905 58.1024 68.7752 58.1888 68.9572 58.1888C69.0365 58.2308 69.0762 58.2961 69.0762 58.3848C69.0762 58.8468 68.9945 59.0778 68.8312 59.0778C68.4532 59.0778 67.5455 58.6088 66.1082 57.6708C65.9262 57.5494 65.8118 57.4888 65.7652 57.4888C65.7185 57.4888 65.6952 57.5238 65.6952 57.5938C65.6952 57.7711 66.0125 58.1444 66.6472 58.7138C67.2772 59.2831 67.8045 59.6844 68.2292 59.9178ZM65.2052 52.3525C65.4665 52.3525 65.7652 52.4062 66.1012 52.5135C66.4372 52.6162 66.7802 52.7702 67.1302 52.9755C67.4802 53.1808 67.8045 53.4188 68.1032 53.6895C68.3972 53.9555 68.6398 54.2728 68.8312 54.6415C69.0178 55.0055 69.1112 55.3835 69.1112 55.7755C69.1112 56.1628 69.0038 56.4685 68.7892 56.6925C68.5698 56.9165 68.2688 57.0285 67.8862 57.0285C67.6248 57.0285 67.3262 56.9772 66.9902 56.8745C66.6542 56.7672 66.3112 56.6108 65.9612 56.4055C65.6112 56.2002 65.2892 55.9645 64.9952 55.6985C64.7012 55.4278 64.4608 55.1105 64.2742 54.7465C64.0828 54.3778 63.9872 53.9998 63.9872 53.6125C63.9872 53.2205 64.0945 52.9125 64.3092 52.6885C64.5238 52.4645 64.8225 52.3525 65.2052 52.3525ZM65.1422 53.1785C64.6288 53.1785 64.3722 53.3652 64.3722 53.7385C64.3722 54.0512 64.5705 54.4012 64.9672 54.7885C65.3638 55.1712 65.8445 55.4978 66.4092 55.7685C66.9692 56.0345 67.4708 56.1675 67.9142 56.1675C68.4275 56.1675 68.6842 55.9808 68.6842 55.6075C68.6842 55.2995 68.4858 54.9518 68.0892 54.5645C67.6925 54.1772 67.2142 53.8505 66.6542 53.5845C66.0895 53.3138 65.5855 53.1785 65.1422 53.1785ZM68.8172 51.3406C68.6118 51.3406 68.0915 51.2659 67.2562 51.1166C66.4208 50.9626 65.9612 50.8856 65.8772 50.8856C65.7885 50.8856 65.7442 50.9112 65.7442 50.9626C65.7442 51.0092 65.7932 51.0746 65.8912 51.1586C65.9892 51.2426 66.0848 51.3126 66.1782 51.3686L66.3252 51.4596C66.9365 51.8329 67.7462 52.2552 68.7542 52.7266C68.9595 52.8199 69.0902 52.9086 69.1462 52.9926C69.2068 53.0766 69.2372 53.1979 69.2372 53.3566C69.2372 53.5106 69.2022 53.5876 69.1322 53.5876H69.1112C69.0505 53.5876 68.8288 53.4686 68.4462 53.2306C66.9855 52.3206 65.8305 51.6556 64.9812 51.2356C64.7665 51.1282 64.5728 51.0746 64.4002 51.0746H64.2882C64.2555 51.0746 64.2228 51.0629 64.1902 51.0396C64.1528 51.0116 64.1155 50.9299 64.0782 50.7946C64.0362 50.6592 64.0152 50.4726 64.0152 50.2346C64.0152 49.8752 64.0828 49.6956 64.2182 49.6956C64.2602 49.6956 64.7128 49.7912 65.5762 49.9826C66.4395 50.1739 66.9622 50.2696 67.1442 50.2696C67.3215 50.2696 67.4102 50.2509 67.4102 50.2136C67.4102 50.1576 67.3798 50.0992 67.3192 50.0386C67.2585 49.9779 67.2002 49.9312 67.1442 49.8986L67.0532 49.8496C66.5632 49.5509 66.0778 49.2826 65.5972 49.0446C65.1118 48.8066 64.7548 48.6316 64.5262 48.5196C64.2975 48.4076 64.1528 48.3096 64.0922 48.2256C64.0222 48.1042 63.9872 47.9502 63.9872 47.7636C63.9872 47.5769 64.0152 47.4836 64.0712 47.4836H64.0852C64.1178 47.4836 64.3138 47.6072 64.6732 47.8546C65.0325 48.1019 65.5388 48.4309 66.1922 48.8416C66.8408 49.2476 67.4615 49.6022 68.0542 49.9056C68.3575 50.0362 68.6002 50.1016 68.7822 50.1016C68.8382 50.1016 68.8802 50.1132 68.9082 50.1366C68.9362 50.1552 68.9618 50.2276 68.9852 50.3536C69.0132 50.4749 69.0272 50.6009 69.0272 50.7316V50.9556C69.0272 51.0069 69.0155 51.0699 68.9922 51.1446C68.9548 51.2752 68.8965 51.3406 68.8172 51.3406Z" fill="#49108B"/>
<path d="M82.3188 105.886L82.9738 151.738H92.0131L92.7991 105.886L95.2425 38.5002C95.2727 37.669 95.1318 36.8405 94.8288 36.066C94.3611 34.8708 93.5269 33.8544 92.4459 33.1626L92.1541 32.9758C91.2922 32.4242 90.2902 32.131 89.2668 32.131H85.5362C84.4633 32.131 83.4145 32.4486 82.5218 33.0437L82.2816 33.2038C81.2796 33.8718 80.4914 34.8144 80.0112 35.9188C79.6331 36.7884 79.4573 37.7324 79.4971 38.6798L82.3188 105.886Z" fill="#F3F8FF" stroke="#F3F8FF"/>
<path d="M82.3188 105.886L82.9738 151.738H92.0131L92.7991 105.886L95.2425 38.5002C95.2727 37.669 95.1318 36.8405 94.8288 36.066C94.3611 34.8708 93.5269 33.8544 92.4459 33.1626L92.1541 32.9758C91.2922 32.4242 90.2902 32.131 89.2668 32.131H85.5362C84.4633 32.131 83.4145 32.4486 82.5218 33.0437L82.2816 33.2038C81.2796 33.8718 80.4914 34.8144 80.0112 35.9188C79.6331 36.7884 79.4573 37.7324 79.4971 38.6798L82.3188 105.886Z" fill="#F3F8FF" stroke="#F3F8FF"/>
<path d="M83.2358 151.345V139.948L82.5808 138.245V136.017H81.3569C81.0363 136.017 80.7914 135.731 80.8409 135.415L80.908 134.985C81.2329 132.906 82.0291 130.929 83.2358 129.205L86.4084 123.47C86.5626 123.191 86.7699 122.946 87.0186 122.747C87.1844 122.614 87.4169 122.604 87.5935 122.722L87.6531 122.762C87.9353 122.95 88.1663 123.205 88.3256 123.504L91.0977 128.716C91.2707 129.041 91.4818 129.344 91.7265 129.62C92.8537 130.888 93.5857 132.458 93.8325 134.136L94.0342 135.508C94.0737 135.776 93.8656 136.017 93.5941 136.017H92.1441V138.245L91.6201 139.948V151.345H83.2358Z" fill="#49108B" stroke="#49108B"/>
<path d="M85.2009 91.1363V115.188C85.2009 115.405 85.3768 115.581 85.5939 115.581C85.8109 115.581 85.9869 115.405 85.9869 115.188V95.3148C85.9869 95.1263 86.0811 94.9503 86.2379 94.8458C86.3305 94.784 86.4393 94.7511 86.5506 94.7511H88.0006C88.1409 94.7511 88.2793 94.7838 88.4048 94.8465C88.609 94.9486 88.738 95.1573 88.738 95.3856V115.253C88.738 115.434 88.8846 115.581 89.0655 115.581C89.2464 115.581 89.393 115.434 89.393 115.253V91.1363C89.393 91.0161 89.3574 90.8986 89.2908 90.7986C89.0273 90.4034 88.5837 90.166 88.1087 90.166H86.4852C86.0102 90.166 85.5666 90.4034 85.3031 90.7986C85.2365 90.8986 85.2009 91.0161 85.2009 91.1363Z" fill="#49108B" stroke="#49108B"/>
<path d="M80.8209 35.8549L80.1757 36.576C80.0328 36.7357 79.7696 36.6131 79.7999 36.4009C79.8196 36.2626 79.8615 36.1284 79.924 36.0035L80.3537 35.1441L80.8777 34.3581L81.5142 33.7216C81.7879 33.4479 82.088 33.2019 82.41 32.9872C83.3756 32.3435 84.5101 32 85.6705 32H88.7329C89.8562 32 90.9641 32.2615 91.9689 32.7639C92.5201 33.0395 93.0339 33.3845 93.4977 33.7903L93.8472 34.0961L94.6123 35.4078C94.7125 35.5796 94.7769 35.7699 94.8016 35.9672C94.8311 36.2031 94.5415 36.3389 94.379 36.1655L93.6355 35.3725C93.1681 34.8739 92.626 34.4511 92.0286 34.1192L91.5845 33.8725C90.9205 33.5036 90.1734 33.31 89.4138 33.31H84.5956C84.136 33.31 83.6868 33.4461 83.3045 33.701C82.389 34.3113 81.5545 35.035 80.8209 35.8549Z" fill="#49108B" stroke="#49108B"/>
<path d="M88.5629 73.9787C89.0575 73.9787 89.4729 74.184 89.8089 74.5947C90.1402 75.0007 90.3059 75.521 90.3059 76.1557C90.3059 76.5057 90.2545 76.7717 90.1519 76.9537C90.1425 76.9724 90.1379 76.9934 90.1379 77.0167C90.1379 77.04 90.1635 77.1264 90.2149 77.2757C90.2662 77.425 90.2919 77.5767 90.2919 77.7307C90.2919 77.88 90.2475 77.9547 90.1589 77.9547C90.0375 77.9547 89.7225 77.8077 89.2139 77.5137C88.7005 77.2197 88.3552 76.9584 88.1779 76.7297C88.1032 76.6317 88.0659 76.536 88.0659 76.4427C88.0659 76.3494 88.0915 76.3027 88.1429 76.3027C88.1522 76.3027 88.2105 76.3354 88.3179 76.4007C88.4205 76.4614 88.5582 76.5244 88.7309 76.5897C88.9035 76.6504 89.0529 76.6807 89.1789 76.6807C89.3002 76.6807 89.4029 76.669 89.4869 76.6457C89.5709 76.6177 89.6572 76.5524 89.7459 76.4497C89.8299 76.3424 89.8719 76.214 89.8719 76.0647C89.8719 75.9107 89.8532 75.7684 89.8159 75.6377C89.7785 75.5024 89.7202 75.3694 89.6409 75.2387C89.5615 75.108 89.4449 75.0007 89.2909 74.9167C89.1369 74.8327 88.9595 74.7907 88.7589 74.7907C88.5535 74.7907 88.3459 74.8537 88.1359 74.9797C87.9259 75.1057 87.7485 75.2434 87.6039 75.3927C87.4545 75.542 87.2865 75.6797 87.0999 75.8057C86.9085 75.9317 86.7242 75.9947 86.5469 75.9947C86.3649 75.9947 86.1969 75.948 86.0429 75.8547C85.8889 75.7567 85.7675 75.6377 85.6789 75.4977C85.5855 75.353 85.5085 75.1897 85.4479 75.0077C85.3452 74.6997 85.2939 74.4267 85.2939 74.1887C85.2939 73.9507 85.3055 73.7757 85.3289 73.6637C85.3475 73.547 85.3662 73.4607 85.3849 73.4047C85.4035 73.344 85.4129 73.3067 85.4129 73.2927C85.4129 73.2787 85.4059 73.26 85.3919 73.2367C85.3125 73.0967 85.2729 72.945 85.2729 72.7817C85.2729 72.6184 85.3125 72.5367 85.3919 72.5367C85.5225 72.5367 85.8165 72.693 86.2739 73.0057C86.7265 73.3137 86.9529 73.5447 86.9529 73.6987C86.9529 73.8247 86.9249 73.8877 86.8689 73.8877C86.8595 73.8877 86.8269 73.8714 86.7709 73.8387C86.5842 73.736 86.3719 73.6847 86.1339 73.6847C86.0032 73.6847 85.9029 73.7407 85.8329 73.8527C85.7582 73.9647 85.7209 74.0814 85.7209 74.2027C85.7209 74.3194 85.7395 74.4407 85.7769 74.5667C85.8142 74.688 85.8889 74.8117 86.0009 74.9377C86.1129 75.059 86.2482 75.1197 86.4069 75.1197C86.5609 75.1197 86.7242 75.0614 86.8969 74.9447C87.0649 74.8234 87.2212 74.6927 87.3659 74.5527C87.5059 74.408 87.6855 74.2774 87.9049 74.1607C88.1195 74.0394 88.3389 73.9787 88.5629 73.9787ZM88.4369 73.519C88.4369 73.5517 88.4159 73.5727 88.3739 73.582C88.2945 73.582 88.2035 73.526 88.1009 73.414C87.9982 73.302 87.9329 73.2133 87.9049 73.148C87.8769 73.078 87.8582 72.8517 87.8489 72.469L87.7369 72.371C86.0989 70.9523 85.2799 69.9677 85.2799 69.417C85.2752 69.3703 85.2729 69.3167 85.2729 69.256C85.2729 68.934 85.3499 68.773 85.5039 68.773C85.5319 68.773 85.6065 68.8033 85.7279 68.864L86.3579 69.179C86.6565 69.3283 86.9599 69.473 87.2679 69.613C88.9339 70.369 90.0259 70.8077 90.5439 70.929C90.5812 70.929 90.5999 70.978 90.5999 71.076C90.5999 71.1693 90.5462 71.2837 90.4389 71.419C90.3362 71.5543 90.2452 71.622 90.1659 71.622C90.0212 71.622 89.7482 71.5077 89.3469 71.279C88.9455 71.0503 88.6842 70.936 88.5629 70.936C88.3995 70.936 88.3179 71.2533 88.3179 71.888C88.3179 71.9813 88.3225 72.126 88.3319 72.322L88.6819 72.588C89.1205 72.9147 89.6642 73.2273 90.3129 73.526C90.4295 73.5773 90.4879 73.7337 90.4879 73.995C90.4879 74.2563 90.4505 74.387 90.3759 74.387C90.3245 74.387 90.1005 74.2423 89.7039 73.953C89.3025 73.659 88.8592 73.3113 88.3739 72.91C88.3832 72.98 88.3925 73.0687 88.4019 73.176C88.4112 73.2833 88.4205 73.3673 88.4299 73.428C88.4345 73.484 88.4369 73.5143 88.4369 73.519ZM87.5339 70.614C87.3145 70.432 87.0929 70.2967 86.8689 70.208C86.6449 70.1147 86.4932 70.068 86.4139 70.068C86.3345 70.068 86.2949 70.1077 86.2949 70.187C86.2949 70.327 86.4442 70.558 86.7429 70.88C87.0369 71.202 87.4055 71.552 87.8489 71.93L87.8629 71.167C87.8629 70.9803 87.7532 70.796 87.5339 70.614ZM90.2499 69.3043L90.2429 69.4023C90.2429 69.4676 90.2639 69.5166 90.3059 69.5493C90.4412 69.708 90.5089 69.9226 90.5089 70.1933C90.5089 70.3333 90.4785 70.4033 90.4179 70.4033H90.3969C90.3455 70.4033 90.0422 70.2423 89.4869 69.9203C88.9269 69.5936 88.3039 69.2343 87.6179 68.8423C86.9319 68.4456 86.4605 68.1913 86.2039 68.0793C85.9472 67.9626 85.7349 67.9043 85.5669 67.9043H85.4759C85.3545 67.9043 85.2939 67.6546 85.2939 67.1553C85.2939 66.9033 85.3405 66.7773 85.4339 66.7773C85.4712 66.7773 85.5085 66.796 85.5459 66.8333C86.1525 67.2066 87.0182 67.7013 88.1429 68.3173L88.3179 68.4153C88.4345 68.4806 88.5185 68.5273 88.5699 68.5553C88.6165 68.5833 88.7005 68.6276 88.8219 68.6883C88.9385 68.7443 89.0342 68.7863 89.1089 68.8143C89.3189 68.8936 89.4822 68.9333 89.5989 68.9333C89.7715 68.9333 89.8579 68.7793 89.8579 68.4713V68.4223C89.8579 68.231 89.8182 68.021 89.7389 67.7923C89.5802 67.3443 89.2769 66.9803 88.8289 66.7003C88.7869 66.6816 88.7659 66.6303 88.7659 66.5463C88.7659 66.4576 88.8032 66.4133 88.8779 66.4133C88.9899 66.4133 89.1905 66.488 89.4799 66.6373C89.7692 66.7866 89.9839 66.922 90.1239 67.0433C90.2079 67.104 90.2499 67.2206 90.2499 67.3933C90.2592 67.566 90.2639 67.9393 90.2639 68.5133L90.2499 69.3043ZM86.4279 61.5947C86.6892 61.5947 86.9879 61.6483 87.3239 61.7557C87.6599 61.8583 88.0029 62.0123 88.3529 62.2177C88.7029 62.423 89.0272 62.661 89.3259 62.9317C89.6199 63.1977 89.8625 63.515 90.0539 63.8837C90.2405 64.2477 90.3339 64.6257 90.3339 65.0177C90.3339 65.405 90.2265 65.7107 90.0119 65.9347C89.7925 66.1587 89.4915 66.2707 89.1089 66.2707C88.8475 66.2707 88.5489 66.2193 88.2129 66.1167C87.8769 66.0093 87.5339 65.853 87.1839 65.6477C86.8339 65.4423 86.5119 65.2067 86.2179 64.9407C85.9239 64.67 85.6835 64.3527 85.4969 63.9887C85.3055 63.62 85.2099 63.242 85.2099 62.8547C85.2099 62.4627 85.3172 62.1547 85.5319 61.9307C85.7465 61.7067 86.0452 61.5947 86.4279 61.5947ZM86.3649 62.4207C85.8515 62.4207 85.5949 62.6073 85.5949 62.9807C85.5949 63.2933 85.7932 63.6433 86.1899 64.0307C86.5865 64.4133 87.0672 64.74 87.6319 65.0107C88.1919 65.2767 88.6935 65.4097 89.1369 65.4097C89.6502 65.4097 89.9069 65.223 89.9069 64.8497C89.9069 64.5417 89.7085 64.194 89.3119 63.8067C88.9152 63.4193 88.4369 63.0927 87.8769 62.8267C87.3122 62.556 86.8082 62.4207 86.3649 62.4207ZM89.4519 59.9177C89.5639 59.9784 89.6199 60.0811 89.6199 60.2257C89.6199 60.3657 89.6012 60.4591 89.5639 60.5057C89.5219 60.5477 89.4169 60.5687 89.2489 60.5687C89.0762 60.5687 88.6795 60.4777 88.0589 60.2957C87.4335 60.1137 87.0742 60.0227 86.9809 60.0227C86.8829 60.0227 86.8339 60.0414 86.8339 60.0787C86.8339 60.1347 86.8829 60.2047 86.9809 60.2887C87.0742 60.3727 87.1675 60.4427 87.2609 60.4987L87.4079 60.5827C87.8932 60.8814 88.3809 61.1544 88.8709 61.4017C89.3562 61.6444 89.7132 61.8241 89.9419 61.9407C90.1659 62.0527 90.3082 62.1507 90.3689 62.2347C90.4295 62.3187 90.4599 62.4401 90.4599 62.5987C90.4599 62.7527 90.4249 62.8297 90.3549 62.8297H90.3339C90.2872 62.8297 90.0702 62.7084 89.6829 62.4657C88.2595 61.5697 87.0975 60.8954 86.1969 60.4427C85.9822 60.3354 85.7815 60.2817 85.5949 60.2817H85.5109C85.4269 60.2817 85.3592 60.1861 85.3079 59.9947C85.2565 59.7987 85.2309 59.6377 85.2309 59.5117V59.2807C85.2309 59.0847 85.2682 58.9401 85.3429 58.8467C85.3709 58.8047 85.4082 58.7837 85.4549 58.7837C85.5015 58.7837 85.8259 58.8771 86.4279 59.0637C87.0252 59.2457 87.3845 59.3367 87.5059 59.3367C87.6272 59.3367 87.6879 59.3181 87.6879 59.2807C87.6879 59.1641 87.5455 58.9587 87.2609 58.6647C86.9715 58.3707 86.6262 58.0347 86.2249 57.6567C85.8889 57.3487 85.5995 57.0547 85.3569 56.7747C85.3009 56.7141 85.2682 56.6417 85.2589 56.5577C85.2309 56.3757 85.2169 56.1821 85.2169 55.9767C85.2169 55.7667 85.2635 55.6617 85.3569 55.6617C85.3755 55.6617 85.3895 55.6641 85.3989 55.6687C85.4082 55.6687 85.5505 55.7551 85.8259 55.9277C86.0965 56.1004 86.4349 56.3104 86.8409 56.5577C87.2422 56.8051 87.6599 57.0524 88.0939 57.2997C88.5232 57.5471 88.9339 57.7571 89.3259 57.9297C89.7132 58.1024 89.9979 58.1887 90.1799 58.1887C90.2592 58.2307 90.2989 58.2961 90.2989 58.3847C90.2989 58.8467 90.2172 59.0777 90.0539 59.0777C89.6759 59.0777 88.7682 58.6087 87.3309 57.6707C87.1489 57.5494 87.0345 57.4887 86.9879 57.4887C86.9412 57.4887 86.9179 57.5237 86.9179 57.5937C86.9179 57.7711 87.2352 58.1444 87.8699 58.7137C88.4999 59.2831 89.0272 59.6844 89.4519 59.9177ZM86.4279 52.3525C86.6892 52.3525 86.9879 52.4061 87.3239 52.5135C87.6599 52.6161 88.0029 52.7701 88.3529 52.9755C88.7029 53.1808 89.0272 53.4188 89.3259 53.6895C89.6199 53.9555 89.8625 54.2728 90.0539 54.6415C90.2405 55.0055 90.3339 55.3835 90.3339 55.7755C90.3339 56.1628 90.2265 56.4685 90.0119 56.6925C89.7925 56.9165 89.4915 57.0285 89.1089 57.0285C88.8475 57.0285 88.5489 56.9771 88.2129 56.8745C87.8769 56.7671 87.5339 56.6108 87.1839 56.4055C86.8339 56.2001 86.5119 55.9645 86.2179 55.6985C85.9239 55.4278 85.6835 55.1105 85.4969 54.7465C85.3055 54.3778 85.2099 53.9998 85.2099 53.6125C85.2099 53.2205 85.3172 52.9125 85.5319 52.6885C85.7465 52.4645 86.0452 52.3525 86.4279 52.3525ZM86.3649 53.1785C85.8515 53.1785 85.5949 53.3651 85.5949 53.7385C85.5949 54.0511 85.7932 54.4011 86.1899 54.7885C86.5865 55.1711 87.0672 55.4978 87.6319 55.7685C88.1919 56.0345 88.6935 56.1675 89.1369 56.1675C89.6502 56.1675 89.9069 55.9808 89.9069 55.6075C89.9069 55.2995 89.7085 54.9518 89.3119 54.5645C88.9152 54.1771 88.4369 53.8505 87.8769 53.5845C87.3122 53.3138 86.8082 53.1785 86.3649 53.1785ZM90.0399 51.3405C89.8345 51.3405 89.3142 51.2659 88.4789 51.1165C87.6435 50.9625 87.1839 50.8855 87.0999 50.8855C87.0112 50.8855 86.9669 50.9112 86.9669 50.9625C86.9669 51.0092 87.0159 51.0745 87.1139 51.1585C87.2119 51.2425 87.3075 51.3125 87.4009 51.3685L87.5479 51.4595C88.1592 51.8329 88.9689 52.2552 89.9769 52.7265C90.1822 52.8199 90.3129 52.9085 90.3689 52.9925C90.4295 53.0765 90.4599 53.1979 90.4599 53.3565C90.4599 53.5105 90.4249 53.5875 90.3549 53.5875H90.3339C90.2732 53.5875 90.0515 53.4685 89.6689 53.2305C88.2082 52.3205 87.0532 51.6555 86.2039 51.2355C85.9892 51.1282 85.7955 51.0745 85.6229 51.0745H85.5109C85.4782 51.0745 85.4455 51.0629 85.4129 51.0395C85.3755 51.0115 85.3382 50.9299 85.3009 50.7945C85.2589 50.6592 85.2379 50.4725 85.2379 50.2345C85.2379 49.8752 85.3055 49.6955 85.4409 49.6955C85.4829 49.6955 85.9355 49.7912 86.7989 49.9825C87.6622 50.1739 88.1849 50.2695 88.3669 50.2695C88.5442 50.2695 88.6329 50.2509 88.6329 50.2135C88.6329 50.1575 88.6025 50.0992 88.5419 50.0385C88.4812 49.9779 88.4229 49.9312 88.3669 49.8985L88.2759 49.8495C87.7859 49.5509 87.3005 49.2825 86.8199 49.0445C86.3345 48.8065 85.9775 48.6315 85.7489 48.5195C85.5202 48.4075 85.3755 48.3095 85.3149 48.2255C85.2449 48.1042 85.2099 47.9502 85.2099 47.7635C85.2099 47.5769 85.2379 47.4835 85.2939 47.4835H85.3079C85.3405 47.4835 85.5365 47.6072 85.8959 47.8545C86.2552 48.1019 86.7615 48.4309 87.4149 48.8415C88.0635 49.2475 88.6842 49.6022 89.2769 49.9055C89.5802 50.0362 89.8229 50.1015 90.0049 50.1015C90.0609 50.1015 90.1029 50.1132 90.1309 50.1365C90.1589 50.1552 90.1845 50.2275 90.2079 50.3535C90.2359 50.4749 90.2499 50.6009 90.2499 50.7315V50.9555C90.2499 51.0069 90.2382 51.0699 90.2149 51.1445C90.1775 51.2752 90.1192 51.3405 90.0399 51.3405Z" fill="#49108B"/>
</g>
</svg>
