<svg width="1425" height="779" viewBox="0 0 1425 779" fill="none" xmlns="http://www.w3.org/2000/svg">
<path d="M140.003 373.948C119.307 378.288 103.207 377.182 91.7013 370.629C80.2351 364.019 72.2261 350.27 67.6742 329.381C67.1462 326.966 66.5043 323.633 65.7485 319.383C64.9927 315.133 64.3489 310.959 63.8169 306.861C63.285 302.762 63.0992 299.779 63.2597 297.913L71.7326 296.136C71.6381 297.543 71.7864 300.038 72.1775 303.621C72.6075 307.147 73.1767 311.04 73.885 315.299C74.5933 319.559 75.3499 323.536 76.1546 327.231C80.1955 345.8 87.1953 358.028 97.1541 363.914C107.104 369.752 120.98 370.805 138.78 367.071C157.387 363.169 170.167 356.403 177.12 346.772C184.065 337.093 186.295 323.054 183.811 304.653C183.472 302.198 183.14 299.915 182.814 297.804C182.535 295.683 182.209 293.572 181.836 291.471C181.501 289.312 181.057 286.954 180.503 284.395C177.846 272.223 172.393 262.742 164.145 255.952C155.936 249.105 145.505 245.274 132.854 244.46L102.365 242.459C99.0705 242.209 96.1059 241.32 93.4708 239.792C90.8832 238.254 88.6963 236.063 86.9102 233.218C85.1715 230.363 83.8658 226.897 82.9931 222.82C82.1459 218.887 81.4887 215.607 81.0217 212.981C80.5461 210.307 80.0441 207.069 79.5157 203.267C78.0237 192.385 79.1036 184.06 82.7553 178.292C86.4545 172.513 93.2407 168.589 103.114 166.518C112.37 164.577 119.578 165.517 124.738 169.338C129.946 173.15 133.777 180.569 136.23 191.595C137.018 195.194 137.863 199.946 138.765 205.849C139.714 211.742 140.508 217.173 141.145 222.141L132.601 223.933C131.913 218.678 131.128 213.295 130.246 207.784C129.403 202.215 128.563 197.488 127.724 193.602C125.727 184.313 122.766 178.321 118.841 175.628C114.962 172.924 110.128 172.18 104.337 173.394C97.9286 174.738 93.3062 177.54 90.4695 181.801C87.6243 186.013 86.8568 192.91 88.1669 202.492C88.5645 205.282 89.0351 208.205 89.5785 211.261C90.161 214.259 90.7969 217.419 91.4863 220.742C92.0483 223.348 92.8399 225.585 93.8611 227.451C94.9213 229.259 96.2068 230.674 97.7177 231.694C99.2201 232.667 100.896 233.232 102.746 233.389L133.144 235.707C148.058 236.789 160.345 241.369 170.005 249.448C179.656 257.479 185.982 268.411 188.984 282.245C189.469 284.422 189.901 286.709 190.278 289.106C190.702 291.494 191.08 293.891 191.409 296.299C191.786 298.696 192.123 301.003 192.418 303.22C195.216 323.932 192.566 339.768 184.471 350.728C176.423 361.678 161.6 369.418 140.003 373.948ZM137.557 360.195C122.557 363.341 110.879 362.323 102.523 357.141C94.158 351.911 88.1996 341.249 84.6478 325.153C83.9924 322.021 83.2996 318.402 82.5693 314.295C81.8864 310.179 81.2935 306.291 80.7905 302.632C80.3265 298.916 80.1078 296.163 80.1344 294.374L88.6073 292.597C88.6961 294.758 88.9556 297.601 89.3856 301.127C89.8546 304.595 90.4136 308.291 91.0624 312.217C91.7503 316.085 92.4431 319.704 93.141 323.074C96.0918 336.622 100.933 345.711 107.665 350.342C114.436 354.915 123.993 355.907 136.334 353.319C149.388 350.582 158.152 345.598 162.627 338.369C167.103 331.14 168.425 320.857 166.595 307.521C166.257 305.066 165.937 302.854 165.637 300.887C165.375 298.861 165.074 296.893 164.735 294.983C164.434 293.016 164.037 290.92 163.542 288.695C162.376 283.244 160.366 278.588 157.514 274.729C154.708 270.859 151.172 267.861 146.904 265.735C142.675 263.551 137.803 262.319 132.287 262.039L101.551 260.312C96.0753 259.975 90.9362 258.625 86.1342 256.264C81.3236 253.855 77.1612 250.246 73.6468 245.435C70.1325 240.625 67.5816 234.448 65.994 226.906C65.3726 223.965 64.8513 221.449 64.4302 219.358C64.0566 217.257 63.6957 215.228 63.3475 213.27C63.0383 211.254 62.7104 208.995 62.3637 206.492C60.1835 190.356 62.1539 178.179 68.275 169.961C74.3961 161.743 85.1938 156.011 100.668 152.766C116.143 149.521 127.913 150.643 135.98 156.134C144.085 161.566 149.839 172.049 153.242 187.582C154.03 191.181 154.9 196.075 155.853 202.265C156.845 208.397 157.615 213.833 158.162 218.572L149.689 220.349C149.043 215.333 148.237 209.831 147.271 203.842C146.352 197.843 145.511 193.116 144.749 189.66C141.798 176.113 136.945 167.1 130.191 162.623C123.429 158.097 113.995 157.104 101.891 159.642C89.8818 162.161 81.2284 166.799 75.9308 173.556C70.6806 180.304 69.0148 190.733 70.9333 204.844C71.4907 209.085 72.0352 212.562 72.5667 215.274C73.0897 217.938 73.7341 221.146 74.4999 224.899C75.6664 230.35 77.4819 235.022 79.9465 238.913C82.4586 242.795 85.579 245.806 89.3078 247.946C93.0281 250.039 97.2534 251.233 101.984 251.529L132.577 253.285C142.322 253.817 150.728 256.785 157.794 262.188C164.908 267.581 169.651 275.7 172.023 286.545C172.466 288.483 172.849 290.359 173.172 292.174C173.486 293.941 173.787 295.908 174.074 298.077C174.408 300.236 174.785 302.906 175.203 306.087C177.388 321.974 175.588 334.14 169.803 342.585C164.065 351.02 153.316 356.89 137.557 360.195ZM135.111 346.443C125.808 348.394 118.505 347.474 113.202 343.682C107.938 339.833 104.078 332.247 101.621 320.924C100.932 317.602 100.26 314.102 99.6066 310.425C98.9442 306.701 98.3827 303.128 97.9222 299.708C97.5007 296.23 97.1963 293.273 97.009 290.835L105.482 289.058C105.7 291.39 105.998 294.176 106.377 297.415C106.804 300.644 107.324 304.126 107.939 307.86C108.593 311.537 109.323 315.223 110.127 318.918C112.056 327.825 114.899 333.841 118.655 336.967C122.403 340.044 127.481 340.911 133.889 339.567C140.676 338.143 145.269 335.174 147.667 330.659C150.064 326.144 150.644 319.435 149.405 310.532C148.961 307.207 148.585 304.537 148.276 302.521C148.014 300.496 147.756 298.767 147.501 297.334C147.246 295.902 146.931 294.408 146.556 292.852C145.977 290.15 145.002 287.853 143.632 285.961C142.301 284.011 140.629 282.504 138.618 281.44C136.655 280.366 134.355 279.759 131.721 279.618L100.758 277.864C91.6558 277.346 83.5928 275.198 76.5694 271.421C69.546 267.644 63.6825 262.36 58.9791 255.57C54.3147 248.722 50.9909 240.553 49.0077 231.062C48.0416 226.46 47.2825 222.608 46.7305 219.504C46.1786 216.4 45.6638 213.09 45.1863 209.575C42.4062 188.958 45.1155 173.184 53.3143 162.251C61.5605 151.309 76.53 143.563 98.2225 139.014C118.966 134.663 134.999 135.808 146.323 142.448C157.686 149.03 165.65 162.665 170.215 183.353C171.003 186.953 171.903 192.014 172.916 198.538C173.976 205.052 174.754 210.536 175.25 214.988L166.706 216.78C166.201 212.28 165.44 206.892 164.423 200.617C163.444 194.284 162.548 189.246 161.735 185.503C157.757 167.565 150.962 155.518 141.349 149.361C131.735 143.204 117.768 142.047 99.4454 145.89C81.0755 149.742 68.2309 156.423 60.9116 165.933C53.6397 175.433 51.263 189.478 53.7814 208.069C54.3643 212.454 54.9385 216.098 55.5039 219.001C56.0609 221.856 56.7266 225.184 57.5008 228.984C59.2463 237.137 62.0925 244.144 66.0394 250.003C69.9779 255.814 74.8926 260.331 80.7833 263.553C86.7215 266.766 93.5239 268.608 101.191 269.081L132.011 270.864C136.09 271.098 139.677 272.03 142.774 273.659C145.909 275.231 148.52 277.457 150.608 280.337C152.696 283.218 154.177 286.697 155.049 290.774C155.475 292.616 155.813 294.378 156.063 296.059C156.36 297.73 156.664 299.574 156.973 301.589C157.273 303.557 157.612 306.012 157.987 308.955C159.508 320.276 158.522 328.853 155.03 334.687C151.529 340.474 144.89 344.392 135.111 346.443Z" fill="#FED8FF" fill-opacity="0.8"/>
<path d="M377.488 325.537L359.99 93.3956L368.684 92.6017L373.562 157.311L378.28 250.887L382.338 250.517L420.164 152.325L447.363 85.4167L457.289 84.5103L417.496 182.736L477.249 316.427L468.048 317.267L412.944 193.962L382.075 270.262L386.182 324.743L377.488 325.537ZM394.875 323.949L390.917 271.427L413.229 216.141L458.775 318.114L449.574 318.954L413.598 238.459L399.764 272.665L403.569 323.155L394.875 323.949ZM360.1 327.125L342.603 94.9834L351.297 94.1895L368.794 326.331L360.1 327.125ZM486.523 315.58L426.941 182.238L466.78 83.6436L476.488 82.7571L436.403 181.959L495.724 314.74L486.523 315.58ZM381.407 231.391L381.938 152.31L377.378 91.8077L386.072 91.0138L390.211 145.93L386.74 199.569L389.638 199.304L405.834 143.188L427.947 87.1898L437.583 86.3099L412.905 146.998L384.884 231.074L381.407 231.391Z" fill="#FED8FF" fill-opacity="0.8"/>
<path d="M682.396 305.882L682.63 73.0819L691.36 73.0557L691.126 305.856L682.396 305.882ZM647.477 305.986L647.711 73.1866L656.441 73.1604L656.207 305.96L647.477 305.986ZM664.937 305.934L665.17 73.1342L673.9 73.1081L673.666 305.908L664.937 305.934Z" fill="#FED8FF" fill-opacity="0.8"/>
<path d="M804.942 153.748L810.55 112.673L798.928 112.03L799.317 104.474L818.493 105.535L818.105 113.091L810.753 154.07L804.942 153.748ZM816.564 154.391L825.659 113.509L826.436 98.3972L799.705 96.9184L800.093 89.3624L834.379 91.2591L833.214 113.927L822.375 154.713L816.564 154.391ZM828.187 155.034L840.768 114.345L842.322 84.121L800.482 81.8064L800.87 74.2504L850.265 76.9829L848.323 114.763L833.998 155.355L828.187 155.034Z" fill="#FED8FF" fill-opacity="0.8"/>
<path d="M1001.88 326.296C979.421 323.045 963.847 316.21 955.165 305.791C946.482 295.371 943.326 279.799 945.699 259.072C947.264 245.383 948.894 231.385 950.587 217.077C952.329 202.776 954.146 188.266 956.04 173.546C957.939 158.778 959.905 143.873 961.938 128.831C963.977 113.74 966.1 98.5636 968.307 83.3013L976.947 84.5516C974.943 98.6182 972.928 112.953 970.903 127.556C968.926 142.165 966.984 156.878 965.079 171.694C963.173 186.51 961.315 201.333 959.506 216.163C957.744 230.999 956.028 245.671 954.357 260.178C952.246 278.492 954.928 292.233 962.403 301.399C969.878 310.566 983.336 316.556 1002.78 319.369C1022.12 322.168 1036.53 320.21 1046 313.496C1055.46 306.781 1061.49 294.301 1064.09 276.057C1066.15 261.557 1068.17 246.978 1070.15 232.321C1072.19 217.622 1074.15 202.912 1076.05 188.193C1077.94 173.473 1079.78 158.794 1081.56 144.157C1083.36 129.472 1085.06 114.896 1086.68 100.43L1095.32 101.68C1093.13 120.963 1090.82 140.425 1088.39 160.065C1085.96 179.706 1083.44 199.356 1080.81 219.016C1078.18 238.677 1075.48 258.155 1072.71 277.451C1069.76 298.094 1062.81 312.205 1051.86 319.783C1040.91 327.362 1024.25 329.532 1001.88 326.296ZM1003.67 312.442C987.347 310.08 976.029 304.939 969.714 297.018C963.447 289.104 961.211 277.217 963.007 261.356C964.745 246.32 966.489 231.432 968.238 216.691C970.042 201.91 971.881 187.231 973.756 172.656C975.631 158.08 977.547 143.56 979.506 129.094C981.512 114.636 983.539 100.205 985.588 85.8019L994.228 87.0521C992.173 101.504 990.137 116.007 988.118 130.561C986.153 145.075 984.227 159.667 982.34 174.339C980.459 188.962 978.623 203.617 976.832 218.302C975.089 232.995 973.367 247.715 971.665 262.462C970.131 275.911 971.894 285.966 976.953 292.627C982.06 299.295 991.262 303.591 1004.56 305.515C1017.76 307.425 1027.61 305.887 1034.12 300.899C1040.68 295.919 1044.92 286.733 1046.83 273.34C1048.89 258.84 1050.92 244.261 1052.9 229.604C1054.93 214.953 1056.89 200.292 1058.78 185.62C1060.67 170.9 1062.51 156.222 1064.29 141.584C1066.08 126.947 1067.78 112.395 1069.4 97.9295L1078.04 99.1797C1076.38 113.934 1074.66 128.654 1072.87 143.34C1071.08 158.025 1069.24 172.704 1067.35 187.375C1065.46 202.047 1063.54 216.664 1061.56 231.225C1059.59 245.787 1057.56 260.29 1055.45 274.734C1053.23 290.533 1048.09 301.354 1040.06 307.198C1032.02 313.041 1019.89 314.789 1003.67 312.442ZM1005.45 298.588C995.225 297.108 988.163 293.661 984.264 288.246C980.364 282.831 979.051 274.605 980.324 263.568C982.591 243.66 984.93 223.958 987.34 204.462C989.756 184.918 992.256 165.484 994.839 146.16C997.422 126.836 1000.1 107.55 1002.87 88.3024L1011.51 89.5527C1009.5 103.619 1007.49 117.954 1005.46 132.557C1003.49 147.118 1001.55 161.807 999.648 176.623C997.749 191.391 995.897 206.165 994.093 220.947C992.338 235.736 990.631 250.336 988.973 264.746C987.968 273.323 988.811 279.692 991.503 283.855C994.242 288.024 999.188 290.626 1006.34 291.661C1013.44 292.689 1018.79 291.577 1022.39 288.324C1025.99 285.072 1028.38 279.171 1029.58 270.623C1032.37 251.23 1035.07 231.776 1037.67 212.26C1040.29 192.696 1042.8 173.166 1045.21 153.67C1047.63 134.126 1049.93 114.712 1052.12 95.4289L1060.76 96.6792C1059.1 111.482 1057.37 126.226 1055.58 140.911C1053.79 155.597 1051.95 170.251 1050.07 184.875C1048.19 199.498 1046.27 214.067 1044.3 228.58C1042.34 243.094 1040.31 257.549 1038.21 271.945C1036.65 282.94 1033.33 290.496 1028.26 294.612C1023.18 298.728 1015.58 300.053 1005.45 298.588Z" fill="#FED8FF" fill-opacity="0.8"/>
<path d="M1231.14 360.75L1283.99 134.028L1343.89 149.947C1356.59 153.322 1366.95 157.804 1374.95 163.393C1383.01 168.994 1388.46 176.438 1391.33 185.726C1394.25 194.979 1394.3 206.83 1391.47 221.279C1389.88 229.182 1388.28 236.581 1386.67 243.478C1385.12 250.339 1383.29 257.676 1381.17 265.489C1377.33 279.617 1372.08 290.06 1365.43 296.82C1358.82 303.591 1350.73 307.436 1341.16 308.353C1331.64 309.283 1320.52 308.06 1307.82 304.684L1290.1 299.976L1273.32 371.96L1264.89 369.718L1283.38 290.365L1309.54 297.316C1320.23 300.156 1329.68 301.239 1337.9 300.564C1346.13 299.843 1353.15 296.541 1358.95 290.659C1364.8 284.789 1369.41 275.558 1372.8 262.964C1374.23 257.676 1375.5 252.748 1376.62 248.179C1377.78 243.622 1378.85 239.04 1379.82 234.434C1380.85 229.792 1381.9 224.755 1382.97 219.32C1385.47 206.691 1385.47 196.333 1382.97 188.246C1380.48 180.16 1375.76 173.714 1368.81 168.909C1361.93 164.07 1353.05 160.205 1342.17 157.315L1290.71 143.638L1239.57 362.992L1231.14 360.75ZM1248.01 365.234L1297.43 153.249L1340.46 164.684C1349.31 167.038 1356.63 170.237 1362.41 174.28C1368.25 178.288 1372.23 183.736 1374.36 190.621C1376.53 197.519 1376.57 206.433 1374.47 217.361C1373.3 223.422 1371.93 229.954 1370.35 236.957C1368.81 243.973 1366.84 251.8 1364.43 260.438C1361.48 271.143 1357.54 278.997 1352.59 284.002C1347.68 289.019 1341.77 291.862 1334.85 292.53C1327.98 293.162 1320.12 292.302 1311.26 289.948L1276.66 280.755L1256.45 367.476L1248.01 365.234ZM1278.38 273.386L1312.97 282.579C1323.75 285.444 1332.73 285.395 1339.89 282.433C1347.06 279.423 1352.45 271.25 1356.06 257.913C1357.43 252.862 1358.67 248.075 1359.78 243.553C1360.93 239.043 1361.98 234.509 1362.95 229.95C1363.97 225.355 1364.97 220.506 1365.97 215.403C1368.62 201.864 1367.45 191.97 1362.43 185.722C1357.42 179.474 1349.52 174.917 1338.74 172.052L1304.15 162.86L1278.38 273.386ZM1288.54 268.26L1310.86 172.47L1337.02 179.421C1345.6 181.7 1351.64 185.338 1355.16 190.335C1358.72 195.344 1359.49 203.047 1357.46 213.444C1356.5 218.655 1355.51 223.51 1354.51 228.01C1353.52 232.509 1352.45 236.967 1351.32 241.382C1350.25 245.762 1349.04 250.43 1347.68 255.387C1344.91 265.585 1340.85 272.005 1335.5 274.647C1330.21 277.302 1323.27 277.49 1314.69 275.211L1288.54 268.26ZM1298.69 263.134L1316.41 267.842C1321.85 269.287 1326.51 269.147 1330.39 267.421C1334.29 265.648 1337.27 260.795 1339.31 252.862C1340.76 247.077 1342.33 240.672 1344.02 233.647C1345.72 226.574 1347.36 219.187 1348.96 211.485C1350.63 203.453 1350.13 197.702 1347.46 194.232C1344.79 190.715 1340.74 188.234 1335.3 186.789L1317.58 182.081L1298.69 263.134Z" fill="#FED8FF" fill-opacity="0.8"/>
</svg>
