<svg width="17" height="17" viewBox="0 0 17 17" fill="none" xmlns="http://www.w3.org/2000/svg">
<rect x="3.40002" width="13.6" height="3.4" rx="1" fill="#E26EE5"/>
<rect x="5.09998" y="4.53333" width="11.9" height="3.4" rx="1" fill="#E26EE5"/>
<rect x="6.80005" y="9.06665" width="10.2" height="3.4" rx="1" fill="#E26EE5"/>
<rect x="8.5" y="13.6" width="8.5" height="3.4" rx="1" fill="#E26EE5"/>
<rect x="1.90234" y="6.52866" width="1.19532" height="10.0714" rx="0.5" fill="#E26EE5"/>
<path d="M2.50003 6.52862L1.90238 5.9691L2.14602 5.74102C2.34248 5.5571 2.66217 5.56137 2.86432 5.75062L4.5782 7.35514C4.74995 7.51593 4.75392 7.77576 4.58701 7.93204C4.42393 8.08474 4.15854 8.08121 3.99072 7.92411L2.50003 6.52862Z" fill="#E26EE5"/>
<path d="M2.1357 5.75067C2.33786 5.56142 2.65757 5.55716 2.85403 5.7411L3.09757 5.96912L2.49999 6.52869L1.00942 7.92413C0.841609 8.08124 0.576206 8.08478 0.413107 7.93209C0.246161 7.7758 0.250118 7.51594 0.421891 7.35512L2.1357 5.75067Z" fill="#E26EE5"/>
</svg>
