<svg width="158" height="158" viewBox="0 0 158 158" fill="none" xmlns="http://www.w3.org/2000/svg">
<circle cx="78.5136" cy="78.5136" r="65" fill="#E26EE5"/>
<circle cx="78.5136" cy="78.5136" r="59.65" transform="rotate(-22.7123 78.5136 78.5136)" stroke="#F3F8FF" stroke-width="0.7" stroke-dasharray="67 67"/>
<circle cx="78.5859" cy="78.5859" r="54.8276" transform="rotate(-50.7785 78.5859 78.5859)" stroke="#F3F8FF" stroke-width="0.5" stroke-dasharray="67 67"/>
<circle cx="76.914" cy="78.914" r="46.4797" transform="rotate(-9.01404 76.914 78.914)" stroke="#F3F8FF" stroke-width="0.5" stroke-dasharray="67 67"/>
<path d="M71.9528 41.322L85.4626 121.56L84.6582 121.702L70.2633 41.616C70.1793 41.1488 70.4909 40.7023 70.9583 40.6199C71.4273 40.5372 71.8738 40.8524 71.9528 41.322Z" fill="#F3F8FF" stroke="#F3F8FF"/>
<path d="M70.7959 31.0638L72.0057 31.2574C72.8392 31.3908 73.6508 31.6365 74.4183 31.9878C75.5827 32.5207 76.6935 33.1639 77.7353 33.9086L81.547 36.6331L82.0764 36.9131C82.2923 37.0273 82.3808 37.2907 82.2776 37.5121L82.1443 37.7979C81.7595 38.6236 80.9763 39.1926 80.0721 39.3034C78.769 39.4631 77.4472 39.3596 76.1848 38.999L75.9299 38.9261C74.986 38.6565 74.0858 38.2529 73.2566 37.7275L71.5973 36.6763C71.1984 36.4235 70.9028 36.0367 70.7637 35.5853L71.282 34.9963C71.4429 34.8134 71.5322 34.5785 71.5335 34.335C71.5357 33.9112 71.4999 33.488 71.4263 33.0706L71.2532 32.0891L70.8957 32.1521L70.7959 31.0638Z" fill="#49108B"/>
<path d="M70.7637 35.5853V35.5853C70.9028 36.0367 71.1984 36.4235 71.5973 36.6763L73.2566 37.7275C74.0858 38.2529 74.986 38.6565 75.9299 38.9261L76.1848 38.999C77.4472 39.3596 78.769 39.4631 80.0721 39.3034V39.3034C80.9763 39.1926 81.7595 38.6236 82.1443 37.7979L82.2776 37.5121C82.3808 37.2907 82.2923 37.0273 82.0764 36.9131L81.547 36.6331L77.7353 33.9086C76.6935 33.1639 75.5827 32.5207 74.4183 31.9878V31.9878C73.6508 31.6365 72.8392 31.3908 72.0057 31.2574L70.7959 31.0638L70.8957 32.1521L71.2532 32.0891L71.4263 33.0706C71.4999 33.488 71.5357 33.9112 71.5335 34.335V34.335C71.5322 34.5785 71.4429 34.8134 71.282 34.9963L70.7637 35.5853ZM70.7637 35.5853L72.0099 34.8126M72.0099 34.8126L77.057 36.7797L79.0074 37.9104L79.5122 37.637L75.727 34.9867L73.0618 32.5114C72.7878 32.257 72.4433 32.0915 72.0734 32.0366V32.0366L72.1209 32.2366C72.3234 33.089 72.285 33.9809 72.0099 34.8126V34.8126Z" stroke="#49108B"/>
<path d="M85.5644 126.842L85.0207 123.758L84.434 123.744C84.2108 123.739 83.9912 123.687 83.7897 123.591C83.5942 123.497 83.5487 123.239 83.7004 123.085L83.8566 122.926C83.9103 122.871 83.9727 122.825 84.0413 122.791L84.1356 122.743C84.5206 122.55 84.733 122.126 84.6582 121.702L85.4626 121.56C85.5371 121.982 85.8849 122.302 86.3118 122.342L86.4023 122.35C86.5433 122.363 86.6765 122.42 86.7827 122.514L86.9192 122.634C86.9989 122.704 87.0194 122.82 86.9685 122.913C86.8444 123.14 86.6466 123.318 86.4077 123.417L86.0039 123.584L86.5476 126.668C86.5955 126.94 86.4142 127.199 86.1427 127.246C85.8712 127.294 85.6123 127.113 85.5644 126.842Z" fill="#49108B" stroke="#49108B"/>
<path d="M71.6731 37.0839L71.8691 38.1952C71.9793 38.8202 71.9812 39.4595 71.8748 40.0852C71.8355 40.3159 71.6555 40.497 71.4251 40.5376L70.3263 40.7313C70.186 40.7561 70.0414 40.7387 69.9109 40.6815L69.844 40.6521C69.5008 40.5015 69.3546 40.0936 69.524 39.7593C69.5878 39.6333 69.609 39.49 69.5845 39.3509L69.506 38.9058C69.4796 38.7557 69.3946 38.6223 69.2697 38.5349C69.0238 38.3627 68.9519 38.0301 69.1047 37.7717L69.1382 37.715C69.2167 37.5824 69.2451 37.426 69.2183 37.2742L69.078 36.4787C69.0534 36.3389 68.968 36.2173 68.8448 36.1468C68.6134 36.0142 68.5351 35.7179 68.6709 35.4884L68.7362 35.378C68.8096 35.2538 68.8363 35.1074 68.8112 34.9652L68.7114 34.3992C68.6786 34.2134 68.5865 34.0432 68.4488 33.9142C68.179 33.6615 68.0979 33.266 68.2464 32.9275L68.2748 32.8629C68.3518 32.6872 68.3752 32.4926 68.3419 32.3037L68.2611 31.8455C68.2345 31.6949 68.1492 31.5609 68.0239 31.4732L67.7249 31.2638C67.4831 31.0945 67.5225 30.725 67.7947 30.6106L67.8257 30.5976C68.6323 30.2584 69.5123 30.1315 70.3819 30.2289C70.5433 30.247 70.6734 30.3692 70.7016 30.5291L70.7486 30.7957L71.6731 37.0839Z" fill="#49108B" stroke="#49108B"/>
<path d="M72.2952 33.93L72.325 33.817C72.4215 33.4511 72.4102 33.0651 72.2924 32.7055C72.2058 32.441 72.4679 32.1961 72.726 32.3003L72.8673 32.3575L75.4852 34.6607L79.3611 37.5999C79.4445 37.6631 79.4438 37.7888 79.3597 37.8512C79.2632 37.9228 79.1343 37.933 79.0276 37.8776L76.158 36.3853L75.3252 36.0726C74.4343 35.7381 73.5718 35.3324 72.7461 34.8594L72.6646 34.8127C72.356 34.6359 72.2045 34.2739 72.2952 33.93Z" fill="#F3F8FF" stroke="#F3F8FF"/>
<path d="M85.3189 41.8048L70.5709 121.825L69.7665 121.683L83.6307 41.5032C83.7116 41.0355 84.1571 40.7225 84.6246 40.8049C85.0935 40.8876 85.4053 41.3365 85.3189 41.8048Z" fill="#F3F8FF" stroke="#F3F8FF"/>
<path d="M87.7403 31.7695L88.8109 32.3653C89.5485 32.7757 90.2271 33.2841 90.8282 33.8767C91.7402 34.7758 92.5639 35.7601 93.2882 36.8162L95.9382 40.6801L96.3399 41.1242C96.5037 41.3054 96.4968 41.5832 96.3241 41.7559L96.1011 41.9789C95.4571 42.6231 94.5265 42.8899 93.639 42.6848C92.3599 42.3892 91.1531 41.8398 90.0902 41.0693L89.8756 40.9136C89.0809 40.3375 88.3729 39.6502 87.7734 38.873L86.5738 37.3176C86.2854 36.9437 86.1399 36.479 86.1636 36.0074L86.8521 35.6311C87.0658 35.5143 87.2301 35.3241 87.3146 35.0957C87.4617 34.6982 87.5727 34.2883 87.6463 33.8709L87.8193 32.8894L87.4618 32.8263L87.7403 31.7695Z" fill="#49108B"/>
<path d="M86.1636 36.0074V36.0074C86.1399 36.479 86.2854 36.9437 86.5738 37.3176L87.7734 38.873C88.3729 39.6502 89.0809 40.3375 89.8756 40.9136L90.0902 41.0693C91.1531 41.8399 92.3599 42.3892 93.639 42.6848V42.6848C94.5265 42.8899 95.4571 42.6231 96.1011 41.9789L96.3241 41.7559C96.4968 41.5832 96.5037 41.3054 96.3399 41.1242L95.9382 40.6801L93.2882 36.8162C92.5639 35.7601 91.7402 34.7758 90.8282 33.8767V33.8767C90.2271 33.2841 89.5485 32.7757 88.8109 32.3653L87.7403 31.7695L87.4618 32.8263L87.8193 32.8894L87.6463 33.8709C87.5727 34.2883 87.4617 34.6982 87.3146 35.0957V35.0957C87.2301 35.3241 87.0658 35.5143 86.8521 35.6311L86.1636 36.0074ZM86.1636 36.0074L87.5989 35.7075M87.5989 35.7075L91.6688 39.2821L93.1149 41.0117L93.6827 40.9275L91.0323 37.1424L89.3744 33.9049C89.204 33.5721 88.9368 33.2986 88.608 33.1206V33.1206L88.5843 33.3248C88.4831 34.195 88.1419 35.02 87.5989 35.7075V35.7075Z" stroke="#49108B"/>
<path d="M68.8602 126.822L69.404 123.739L68.8573 123.525C68.6493 123.444 68.4608 123.32 68.3044 123.16C68.1527 123.006 68.1981 122.748 68.3936 122.654L68.5947 122.558C68.664 122.525 68.7382 122.504 68.8144 122.495L68.9193 122.483C69.3473 122.432 69.6916 122.107 69.7665 121.683L70.5709 121.825C70.4965 122.247 70.7138 122.667 71.1015 122.849L71.1838 122.888C71.3118 122.949 71.4173 123.048 71.4852 123.172L71.5724 123.332C71.6233 123.425 71.6029 123.541 71.5232 123.611C71.329 123.782 71.0823 123.881 70.8239 123.893L70.3872 123.912L69.8434 126.996C69.7956 127.267 69.5367 127.448 69.2652 127.401C68.9937 127.353 68.8124 127.094 68.8602 126.822Z" fill="#49108B" stroke="#49108B"/>
<path d="M86.5056 37.7266L86.3097 38.8379C86.1995 39.4629 85.9826 40.0643 85.6686 40.6158C85.5529 40.8192 85.3218 40.9278 85.0913 40.8871L83.9926 40.6934C83.8522 40.6687 83.7223 40.6029 83.6193 40.5045L83.5664 40.454C83.2954 40.1951 83.2976 39.7618 83.571 39.5056C83.6741 39.409 83.7431 39.2816 83.7676 39.1426L83.8461 38.6974C83.8726 38.5473 83.8383 38.3929 83.7509 38.268C83.5787 38.0221 83.6249 37.685 83.8569 37.4944L83.9077 37.4526C84.0269 37.3548 84.107 37.2176 84.1338 37.0658L84.2741 36.2703C84.2987 36.1305 84.26 35.987 84.1684 35.8786C83.9963 35.6749 84.0241 35.3697 84.2302 35.2005L84.3292 35.1191C84.4408 35.0275 84.5159 34.899 84.5409 34.7568L84.6407 34.1908C84.6735 34.005 84.6451 33.8136 84.5598 33.6452C84.3928 33.3155 84.4518 32.9161 84.7072 32.6488L84.7559 32.5978C84.8884 32.4591 84.9769 32.2842 85.0102 32.0953L85.091 31.6371C85.1176 31.4865 85.0832 31.3314 84.9955 31.2061L84.7861 30.9071C84.6168 30.6653 84.7802 30.3316 85.0751 30.3172L85.1087 30.3155C85.9826 30.2727 86.853 30.4544 87.6369 30.8433C87.7823 30.9155 87.8628 31.0749 87.8346 31.2348L87.7876 31.5014L86.5056 37.7266Z" fill="#49108B" stroke="#49108B"/>
<path d="M88.1689 34.9756L88.2355 34.8797C88.4513 34.5688 88.5727 34.2023 88.5851 33.824C88.5942 33.5459 88.9243 33.4054 89.131 33.5916L89.2443 33.6936L90.9167 36.7533L93.5535 40.8409C93.6102 40.9289 93.5666 41.0467 93.4662 41.0766C93.351 41.1108 93.2264 41.0764 93.1452 40.9878L90.959 38.604L90.2833 38.0253C89.5606 37.4063 88.8889 36.7301 88.2747 36.0032L88.2141 35.9314C87.9846 35.6597 87.966 35.2678 88.1689 34.9756Z" fill="#F3F8FF" stroke="#F3F8FF"/>
</svg>
